<?xml version="1.0" encoding="UTF-8" standalone="no"?>
<svg id="svg11261" xmlns:rdf="http://www.w3.org/1999/02/22-rdf-syntax-ns#" xmlns="http://www.w3.org/2000/svg" height="290.12mm" width="244.97mm" version="1.1" xmlns:cc="http://creativecommons.org/ns#" xmlns:xlink="http://www.w3.org/1999/xlink" viewBox="0 0 867.99999 1028" xmlns:dc="http://purl.org/dc/elements/1.1/">
<defs id="defs11263">
<linearGradient id="SVGID_1_" y2="268" gradientUnits="userSpaceOnUse" x2="438.59" gradientTransform="matrix(2 0 0 2 -101.71 -23.638)" y1="268" x1="382.26">
<stop id="stop44" stop-color="#EAC073" offset="0"/>
<stop id="stop46" stop-color="#8A6910" offset=".8"/>
<stop id="stop48" stop-color="#C99E45" offset="1"/>
</linearGradient>
<linearGradient id="SVGID_2_" y2="268" gradientUnits="userSpaceOnUse" x2="18.589" gradientTransform="matrix(2 0 0 2 -101.71 -23.638)" y1="268" x1="75.257">
<stop id="stop53" stop-color="#EAC073" offset="0"/>
<stop id="stop55" stop-color="#8A6910" offset=".8"/>
<stop id="stop57" stop-color="#C99E45" offset="1"/>
</linearGradient>
<linearGradient id="SVGID_3_" y2="518" gradientUnits="userSpaceOnUse" x2="228.51" gradientTransform="matrix(2 0 0 2 -101.71 -23.638)" y1="461" x1="228.51">
<stop id="stop62" stop-color="#EAC073" offset="0"/>
<stop id="stop64" stop-color="#8A6910" offset=".8"/>
<stop id="stop66" stop-color="#C99E45" offset="1"/>
</linearGradient>
<linearGradient id="SVGID_4_" y2="18" gradientUnits="userSpaceOnUse" x2="228.59" gradientTransform="matrix(2 0 0 2 -101.71 -23.638)" y1="75" x1="228.59">
<stop id="stop71" stop-color="#EAC073" offset="0"/>
<stop id="stop73" stop-color="#8A6910" offset=".8"/>
<stop id="stop75" stop-color="#C99E45" offset="1"/>
</linearGradient>
<radialGradient id="radialGradient6586" xlink:href="#linearGradient6565" gradientUnits="userSpaceOnUse" cy="403.73" cx="683.88" gradientTransform="matrix(.84644 -.00036503 .00073013 1.693 105.07 -235.63)" r="1.3779"/>
<linearGradient id="linearGradient6565">
<stop id="stop6567" stop-color="#ba9748" offset="0"/>
<stop id="stop6569" stop-color="#927725" offset="1"/>
</linearGradient>
<radialGradient id="radialGradient6590" xlink:href="#linearGradient6565" gradientUnits="userSpaceOnUse" cy="403.73" cx="683.88" gradientTransform="matrix(.84644 -.00036503 .00073013 1.693 105.07 -243.63)" r="1.3779"/>
<radialGradient id="radialGradient6596" xlink:href="#linearGradient6565" gradientUnits="userSpaceOnUse" cy="403.73" cx="683.88" gradientTransform="matrix(.84644 -.00036503 .00073013 1.693 105.07 -251.63)" r="1.3779"/>
<radialGradient id="radialGradient6598" xlink:href="#linearGradient6565" gradientUnits="userSpaceOnUse" cy="403.73" cx="683.88" gradientTransform="matrix(.84644 -.00036503 .00073013 1.693 105.07 -259.63)" r="1.3779"/>
<radialGradient id="radialGradient6608" xlink:href="#linearGradient6565" gradientUnits="userSpaceOnUse" cy="403.73" cx="683.88" gradientTransform="matrix(.84644 -.00036503 .00073013 1.693 105.07 -267.63)" r="1.3779"/>
<radialGradient id="radialGradient6610" xlink:href="#linearGradient6565" gradientUnits="userSpaceOnUse" cy="403.73" cx="683.88" gradientTransform="matrix(.84644 -.00036503 .00073013 1.693 105.07 -275.63)" r="1.3779"/>
<radialGradient id="radialGradient6612" xlink:href="#linearGradient6565" gradientUnits="userSpaceOnUse" cy="403.73" cx="683.88" gradientTransform="matrix(.84644 -.00036503 .00073013 1.693 105.07 -283.63)" r="1.3779"/>
<radialGradient id="radialGradient6614" xlink:href="#linearGradient6565" gradientUnits="userSpaceOnUse" cy="403.73" cx="683.88" gradientTransform="matrix(.84644 -.00036503 .00073013 1.693 105.07 -291.63)" r="1.3779"/>
<radialGradient id="radialGradient6632" xlink:href="#linearGradient6565" gradientUnits="userSpaceOnUse" cy="403.73" cx="683.88" gradientTransform="matrix(.84644 -.00036503 .00073013 1.693 105.07 -299.63)" r="1.3779"/>
<radialGradient id="radialGradient6634" xlink:href="#linearGradient6565" gradientUnits="userSpaceOnUse" cy="403.73" cx="683.88" gradientTransform="matrix(.84644 -.00036503 .00073013 1.693 105.07 -307.63)" r="1.3779"/>
<radialGradient id="radialGradient6636" xlink:href="#linearGradient6565" gradientUnits="userSpaceOnUse" cy="403.73" cx="683.88" gradientTransform="matrix(.84644 -.00036503 .00073013 1.693 105.07 -315.63)" r="1.3779"/>
<radialGradient id="radialGradient6638" xlink:href="#linearGradient6565" gradientUnits="userSpaceOnUse" cy="403.73" cx="683.88" gradientTransform="matrix(.84644 -.00036503 .00073013 1.693 105.07 -323.63)" r="1.3779"/>
<radialGradient id="radialGradient6640" xlink:href="#linearGradient6565" gradientUnits="userSpaceOnUse" cy="403.73" cx="683.88" gradientTransform="matrix(.84644 -.00036503 .00073013 1.693 105.07 -331.63)" r="1.3779"/>
<radialGradient id="radialGradient6642" xlink:href="#linearGradient6565" gradientUnits="userSpaceOnUse" cy="403.73" cx="683.88" gradientTransform="matrix(.84644 -.00036503 .00073013 1.693 105.07 -339.63)" r="1.3779"/>
<radialGradient id="radialGradient6644" xlink:href="#linearGradient6565" gradientUnits="userSpaceOnUse" cy="403.73" cx="683.88" gradientTransform="matrix(.84644 -.00036503 .00073013 1.693 105.07 -347.63)" r="1.3779"/>
<radialGradient id="radialGradient6646" xlink:href="#linearGradient6565" gradientUnits="userSpaceOnUse" cy="403.73" cx="683.88" gradientTransform="matrix(.84644 -.00036503 .00073013 1.693 105.07 -355.63)" r="1.3779"/>
<radialGradient id="radialGradient6680" xlink:href="#linearGradient6565" gradientUnits="userSpaceOnUse" cy="403.73" cx="683.88" gradientTransform="matrix(.84644 -.00036503 .00073013 1.693 105.07 -363.63)" r="1.3779"/>
<radialGradient id="radialGradient6682" xlink:href="#linearGradient6565" gradientUnits="userSpaceOnUse" cy="403.73" cx="683.88" gradientTransform="matrix(.84644 -.00036503 .00073013 1.693 105.07 -371.63)" r="1.3779"/>
<radialGradient id="radialGradient6684" xlink:href="#linearGradient6565" gradientUnits="userSpaceOnUse" cy="403.73" cx="683.88" gradientTransform="matrix(.84644 -.00036503 .00073013 1.693 105.07 -379.63)" r="1.3779"/>
<radialGradient id="radialGradient6686" xlink:href="#linearGradient6565" gradientUnits="userSpaceOnUse" cy="403.73" cx="683.88" gradientTransform="matrix(.84644 -.00036503 .00073013 1.693 105.07 -387.63)" r="1.3779"/>
<radialGradient id="radialGradient6688" xlink:href="#linearGradient6565" gradientUnits="userSpaceOnUse" cy="403.73" cx="683.88" gradientTransform="matrix(.84644 -.00036503 .00073013 1.693 105.07 -395.63)" r="1.3779"/>
<radialGradient id="radialGradient6690" xlink:href="#linearGradient6565" gradientUnits="userSpaceOnUse" cy="403.73" cx="683.88" gradientTransform="matrix(.84644 -.00036503 .00073013 1.693 105.07 -403.63)" r="1.3779"/>
<radialGradient id="radialGradient6692" xlink:href="#linearGradient6565" gradientUnits="userSpaceOnUse" cy="403.73" cx="683.88" gradientTransform="matrix(.84644 -.00036503 .00073013 1.693 105.07 -411.63)" r="1.3779"/>
<radialGradient id="radialGradient6694" xlink:href="#linearGradient6565" gradientUnits="userSpaceOnUse" cy="403.73" cx="683.88" gradientTransform="matrix(.84644 -.00036503 .00073013 1.693 105.07 -419.63)" r="1.3779"/>
<radialGradient id="radialGradient6696" xlink:href="#linearGradient6565" gradientUnits="userSpaceOnUse" cy="403.73" cx="683.88" gradientTransform="matrix(.84644 -.00036503 .00073013 1.693 105.07 -427.63)" r="1.3779"/>
<radialGradient id="radialGradient6698" xlink:href="#linearGradient6565" gradientUnits="userSpaceOnUse" cy="403.73" cx="683.88" gradientTransform="matrix(.84644 -.00036503 .00073013 1.693 105.07 -435.63)" r="1.3779"/>
<radialGradient id="radialGradient6700" xlink:href="#linearGradient6565" gradientUnits="userSpaceOnUse" cy="403.73" cx="683.88" gradientTransform="matrix(.84644 -.00036503 .00073013 1.693 105.07 -443.63)" r="1.3779"/>
<radialGradient id="radialGradient6702" xlink:href="#linearGradient6565" gradientUnits="userSpaceOnUse" cy="403.73" cx="683.88" gradientTransform="matrix(.84644 -.00036503 .00073013 1.693 105.07 -451.63)" r="1.3779"/>
<radialGradient id="radialGradient6704" xlink:href="#linearGradient6565" gradientUnits="userSpaceOnUse" cy="403.73" cx="683.88" gradientTransform="matrix(.84644 -.00036503 .00073013 1.693 105.07 -459.63)" r="1.3779"/>
<radialGradient id="radialGradient6706" xlink:href="#linearGradient6565" gradientUnits="userSpaceOnUse" cy="403.73" cx="683.88" gradientTransform="matrix(.84644 -.00036503 .00073013 1.693 105.07 -467.63)" r="1.3779"/>
<radialGradient id="radialGradient6708" xlink:href="#linearGradient6565" gradientUnits="userSpaceOnUse" cy="403.73" cx="683.88" gradientTransform="matrix(.84644 -.00036503 .00073013 1.693 105.07 -475.63)" r="1.3779"/>
<radialGradient id="radialGradient6710" xlink:href="#linearGradient6565" gradientUnits="userSpaceOnUse" cy="403.73" cx="683.88" gradientTransform="matrix(.84644 -.00036503 .00073013 1.693 105.07 -483.63)" r="1.3779"/>
<radialGradient id="radialGradient6744" xlink:href="#linearGradient6565" gradientUnits="userSpaceOnUse" cy="403.73" cx="683.88" gradientTransform="matrix(.84644 -.00036503 .00073013 1.693 105.07 -491.63)" r="1.3779"/>
<radialGradient id="radialGradient6746" xlink:href="#linearGradient6565" gradientUnits="userSpaceOnUse" cy="403.73" cx="683.88" gradientTransform="matrix(.84644 -.00036503 .00073013 1.693 105.07 -499.63)" r="1.3779"/>
<radialGradient id="radialGradient6748" xlink:href="#linearGradient6565" gradientUnits="userSpaceOnUse" cy="403.73" cx="683.88" gradientTransform="matrix(.84644 -.00036503 .00073013 1.693 105.07 -507.63)" r="1.3779"/>
<radialGradient id="radialGradient6750" xlink:href="#linearGradient6565" gradientUnits="userSpaceOnUse" cy="403.73" cx="683.88" gradientTransform="matrix(.84644 -.00036503 .00073013 1.693 105.07 -515.63)" r="1.3779"/>
<radialGradient id="radialGradient6752" xlink:href="#linearGradient6565" gradientUnits="userSpaceOnUse" cy="403.73" cx="683.88" gradientTransform="matrix(.84644 -.00036503 .00073013 1.693 105.07 -523.63)" r="1.3779"/>
<radialGradient id="radialGradient6754" xlink:href="#linearGradient6565" gradientUnits="userSpaceOnUse" cy="403.73" cx="683.88" gradientTransform="matrix(.84644 -.00036503 .00073013 1.693 105.07 -531.63)" r="1.3779"/>
<radialGradient id="radialGradient6756" xlink:href="#linearGradient6565" gradientUnits="userSpaceOnUse" cy="403.73" cx="683.88" gradientTransform="matrix(.84644 -.00036503 .00073013 1.693 105.07 -539.63)" r="1.3779"/>
<radialGradient id="radialGradient6758" xlink:href="#linearGradient6565" gradientUnits="userSpaceOnUse" cy="403.73" cx="683.88" gradientTransform="matrix(.84644 -.00036503 .00073013 1.693 105.07 -547.63)" r="1.3779"/>
<radialGradient id="radialGradient6760" xlink:href="#linearGradient6565" gradientUnits="userSpaceOnUse" cy="403.73" cx="683.88" gradientTransform="matrix(.84644 -.00036503 .00073013 1.693 105.07 -555.63)" r="1.3779"/>
<radialGradient id="radialGradient6762" xlink:href="#linearGradient6565" gradientUnits="userSpaceOnUse" cy="403.73" cx="683.88" gradientTransform="matrix(.84644 -.00036503 .00073013 1.693 105.07 -563.63)" r="1.3779"/>
<radialGradient id="radialGradient6764" xlink:href="#linearGradient6565" gradientUnits="userSpaceOnUse" cy="403.73" cx="683.88" gradientTransform="matrix(.84644 -.00036503 .00073013 1.693 105.07 -571.63)" r="1.3779"/>
<radialGradient id="radialGradient6766" xlink:href="#linearGradient6565" gradientUnits="userSpaceOnUse" cy="403.73" cx="683.88" gradientTransform="matrix(.84644 -.00036503 .00073013 1.693 105.07 -579.63)" r="1.3779"/>
<radialGradient id="radialGradient6768" xlink:href="#linearGradient6565" gradientUnits="userSpaceOnUse" cy="403.73" cx="683.88" gradientTransform="matrix(.84644 -.00036503 .00073013 1.693 105.07 -587.63)" r="1.3779"/>
<radialGradient id="radialGradient6770" xlink:href="#linearGradient6565" gradientUnits="userSpaceOnUse" cy="403.73" cx="683.88" gradientTransform="matrix(.84644 -.00036503 .00073013 1.693 105.07 -595.63)" r="1.3779"/>
<radialGradient id="radialGradient7104" xlink:href="#linearGradient6565" gradientUnits="userSpaceOnUse" cy="403.73" cx="683.88" gradientTransform="matrix(.00036503 .84644 -1.693 .00073013 1372.3 -126.55)" r="1.3779"/>
<radialGradient id="radialGradient7106" xlink:href="#linearGradient6565" gradientUnits="userSpaceOnUse" cy="403.73" cx="683.88" gradientTransform="matrix(.00036503 .84644 -1.693 .00073013 1380.3 -126.55)" r="1.3779"/>
<radialGradient id="radialGradient7108" xlink:href="#linearGradient6565" gradientUnits="userSpaceOnUse" cy="403.73" cx="683.88" gradientTransform="matrix(.00036503 .84644 -1.693 .00073013 1388.3 -126.55)" r="1.3779"/>
<radialGradient id="radialGradient7110" xlink:href="#linearGradient6565" gradientUnits="userSpaceOnUse" cy="403.73" cx="683.88" gradientTransform="matrix(.00036503 .84644 -1.693 .00073013 1396.3 -126.55)" r="1.3779"/>
<radialGradient id="radialGradient7112" xlink:href="#linearGradient6565" gradientUnits="userSpaceOnUse" cy="403.73" cx="683.88" gradientTransform="matrix(.00036503 .84644 -1.693 .00073013 1404.3 -126.55)" r="1.3779"/>
<radialGradient id="radialGradient7114" xlink:href="#linearGradient6565" gradientUnits="userSpaceOnUse" cy="403.73" cx="683.88" gradientTransform="matrix(.00036503 .84644 -1.693 .00073013 1412.3 -126.55)" r="1.3779"/>
<radialGradient id="radialGradient7116" xlink:href="#linearGradient6565" gradientUnits="userSpaceOnUse" cy="403.73" cx="683.88" gradientTransform="matrix(.00036503 .84644 -1.693 .00073013 1420.3 -126.55)" r="1.3779"/>
<radialGradient id="radialGradient7118" xlink:href="#linearGradient6565" gradientUnits="userSpaceOnUse" cy="403.73" cx="683.88" gradientTransform="matrix(.00036503 .84644 -1.693 .00073013 1428.3 -126.55)" r="1.3779"/>
<radialGradient id="radialGradient7120" xlink:href="#linearGradient6565" gradientUnits="userSpaceOnUse" cy="403.73" cx="683.88" gradientTransform="matrix(.00036503 .84644 -1.693 .00073013 1436.3 -126.55)" r="1.3779"/>
<radialGradient id="radialGradient7122" xlink:href="#linearGradient6565" gradientUnits="userSpaceOnUse" cy="403.73" cx="683.88" gradientTransform="matrix(.00036503 .84644 -1.693 .00073013 1444.3 -126.55)" r="1.3779"/>
<radialGradient id="radialGradient7124" xlink:href="#linearGradient6565" gradientUnits="userSpaceOnUse" cy="403.73" cx="683.88" gradientTransform="matrix(.00036503 .84644 -1.693 .00073013 1452.3 -126.55)" r="1.3779"/>
<radialGradient id="radialGradient7126" xlink:href="#linearGradient6565" gradientUnits="userSpaceOnUse" cy="403.73" cx="683.88" gradientTransform="matrix(.00036503 .84644 -1.693 .00073013 1460.3 -126.55)" r="1.3779"/>
<radialGradient id="radialGradient7128" xlink:href="#linearGradient6565" gradientUnits="userSpaceOnUse" cy="403.73" cx="683.88" gradientTransform="matrix(.00036503 .84644 -1.693 .00073013 1468.3 -126.55)" r="1.3779"/>
<radialGradient id="radialGradient7130" xlink:href="#linearGradient6565" gradientUnits="userSpaceOnUse" cy="403.73" cx="683.88" gradientTransform="matrix(.00036503 .84644 -1.693 .00073013 1476.3 -126.55)" r="1.3779"/>
<radialGradient id="radialGradient7132" xlink:href="#linearGradient6565" gradientUnits="userSpaceOnUse" cy="403.73" cx="683.88" gradientTransform="matrix(.00036503 .84644 -1.693 .00073013 1484.3 -126.55)" r="1.3779"/>
<radialGradient id="radialGradient7134" xlink:href="#linearGradient6565" gradientUnits="userSpaceOnUse" cy="403.73" cx="683.88" gradientTransform="matrix(.00036503 .84644 -1.693 .00073013 1492.3 -126.55)" r="1.3779"/>
<radialGradient id="radialGradient7136" xlink:href="#linearGradient6565" gradientUnits="userSpaceOnUse" cy="403.73" cx="683.88" gradientTransform="matrix(.00036503 .84644 -1.693 .00073013 1500.3 -126.55)" r="1.3779"/>
<radialGradient id="radialGradient7138" xlink:href="#linearGradient6565" gradientUnits="userSpaceOnUse" cy="403.73" cx="683.88" gradientTransform="matrix(.00036503 .84644 -1.693 .00073013 1508.3 -126.55)" r="1.3779"/>
<radialGradient id="radialGradient7140" xlink:href="#linearGradient6565" gradientUnits="userSpaceOnUse" cy="403.73" cx="683.88" gradientTransform="matrix(.00036503 .84644 -1.693 .00073013 1516.3 -126.55)" r="1.3779"/>
<radialGradient id="radialGradient7142" xlink:href="#linearGradient6565" gradientUnits="userSpaceOnUse" cy="403.73" cx="683.88" gradientTransform="matrix(.00036503 .84644 -1.693 .00073013 1524.3 -126.55)" r="1.3779"/>
<radialGradient id="radialGradient7144" xlink:href="#linearGradient6565" gradientUnits="userSpaceOnUse" cy="403.73" cx="683.88" gradientTransform="matrix(.00036503 .84644 -1.693 .00073013 1532.3 -126.55)" r="1.3779"/>
<radialGradient id="radialGradient7146" xlink:href="#linearGradient6565" gradientUnits="userSpaceOnUse" cy="403.73" cx="683.88" gradientTransform="matrix(.00036503 .84644 -1.693 .00073013 1540.3 -126.55)" r="1.3779"/>
<radialGradient id="radialGradient7148" xlink:href="#linearGradient6565" gradientUnits="userSpaceOnUse" cy="403.73" cx="683.88" gradientTransform="matrix(.00036503 .84644 -1.693 .00073013 1548.3 -126.55)" r="1.3779"/>
<radialGradient id="radialGradient7150" xlink:href="#linearGradient6565" gradientUnits="userSpaceOnUse" cy="403.73" cx="683.88" gradientTransform="matrix(.00036503 .84644 -1.693 .00073013 1556.3 -126.55)" r="1.3779"/>
<radialGradient id="radialGradient7152" xlink:href="#linearGradient6565" gradientUnits="userSpaceOnUse" cy="403.73" cx="683.88" gradientTransform="matrix(.00036503 .84644 -1.693 .00073013 1564.3 -126.55)" r="1.3779"/>
<radialGradient id="radialGradient7154" xlink:href="#linearGradient6565" gradientUnits="userSpaceOnUse" cy="403.73" cx="683.88" gradientTransform="matrix(.00036503 .84644 -1.693 .00073013 1572.3 -126.55)" r="1.3779"/>
<radialGradient id="radialGradient7156" xlink:href="#linearGradient6565" gradientUnits="userSpaceOnUse" cy="403.73" cx="683.88" gradientTransform="matrix(.00036503 .84644 -1.693 .00073013 1580.3 -126.55)" r="1.3779"/>
<radialGradient id="radialGradient7158" xlink:href="#linearGradient6565" gradientUnits="userSpaceOnUse" cy="403.73" cx="683.88" gradientTransform="matrix(.00036503 .84644 -1.693 .00073013 1588.3 -126.55)" r="1.3779"/>
<radialGradient id="radialGradient7160" xlink:href="#linearGradient6565" gradientUnits="userSpaceOnUse" cy="403.73" cx="683.88" gradientTransform="matrix(.00036503 .84644 -1.693 .00073013 1596.3 -126.55)" r="1.3779"/>
<radialGradient id="radialGradient7162" xlink:href="#linearGradient6565" gradientUnits="userSpaceOnUse" cy="403.73" cx="683.88" gradientTransform="matrix(.00036503 .84644 -1.693 .00073013 1604.3 -126.55)" r="1.3779"/>
<radialGradient id="radialGradient7164" xlink:href="#linearGradient6565" gradientUnits="userSpaceOnUse" cy="403.73" cx="683.88" gradientTransform="matrix(.00036503 .84644 -1.693 .00073013 1612.3 -126.55)" r="1.3779"/>
<radialGradient id="radialGradient7166" xlink:href="#linearGradient6565" gradientUnits="userSpaceOnUse" cy="403.73" cx="683.88" gradientTransform="matrix(.00036503 .84644 -1.693 .00073013 1620.3 -126.55)" r="1.3779"/>
<radialGradient id="radialGradient7168" xlink:href="#linearGradient6565" gradientUnits="userSpaceOnUse" cy="403.73" cx="683.88" gradientTransform="matrix(.00036503 .84644 -1.693 .00073013 1628.3 -126.55)" r="1.3779"/>
<radialGradient id="radialGradient7170" xlink:href="#linearGradient6565" gradientUnits="userSpaceOnUse" cy="403.73" cx="683.88" gradientTransform="matrix(.00036503 .84644 -1.693 .00073013 1636.3 -126.55)" r="1.3779"/>
<radialGradient id="radialGradient7172" xlink:href="#linearGradient6565" gradientUnits="userSpaceOnUse" cy="403.73" cx="683.88" gradientTransform="matrix(.00036503 .84644 -1.693 .00073013 1644.3 -126.55)" r="1.3779"/>
<radialGradient id="radialGradient7174" xlink:href="#linearGradient6565" gradientUnits="userSpaceOnUse" cy="403.73" cx="683.88" gradientTransform="matrix(.00036503 .84644 -1.693 .00073013 1652.3 -126.55)" r="1.3779"/>
</defs>
<g id="layer1" transform="translate(79.714 1.6378)">
<g id="g7" transform="matrix(2 0 0 2 -101.71 -23.638)">
<path id="path9" fill="#9d7d1f" d="m367.83 87.833h-279.5v360h279.5v-360zm-356.83 378.17c1.75-1.75 4.502-56.666 4.502-104.67 0-35.07-4.502-34.86-4.502-62.86v-60.47c0-28 4.502-28.264 4.502-63.334 0-48-2.752-102.44-4.502-104.2v-59.47h60.023c1.75 1.75 15.506 4.5 63.524 4.5 35.08 0 35.44-4.5 63.45-4.5h60c28.012 0 28.202 4.5 63.286 4.5 48.018 0 61.773-2.75 63.523-4.5h60.191v59.47c-1.751 1.75-4.502 56.195-4.502 104.2 0 35.07 4.5 35.33 4.5 63.33v60.471c0 28-4.502 27.793-4.502 62.863 0 48 2.751 102.92 4.502 104.67v59h-60c-1.75-1.75-15.529-4.5-63.547-4.5-35.084 0-35.441 4.5-63.453 4.5h-60c-28.011 0-28.203-4.5-63.286-4.5-48.019 0-61.963 2.75-63.714 4.5h-59.833l-0.167-59z"/>
<path id="path11" fill="#a18124" d="m367.83 87.833h-279.5v360h279.5v-360zm-356.29 378.17c1.745-1.747 4.491-56.962 4.491-104.86 0-34.997-4.491-34.727-4.491-62.668v-60.471c0-27.941 4.491-28.142 4.491-63.139 0-47.899-2.746-102.64-4.491-104.39v-58.931h59.484c1.746 1.746 15.857 4.49 63.756 4.49 34.997 0 35.279-4.49 63.221-4.49h60c27.942 0 28.058 4.49 63.055 4.49 47.898 0 62.009-2.745 63.755-4.49h59.651v58.932c-1.746 1.746-4.49 56.491-4.49 104.39 0 34.997 4.49 35.197 4.49 63.139v60.471c0 27.941-4.49 27.671-4.49 62.668 0 47.899 2.744 103.11 4.49 104.86v58.462h-59.461c-1.746-1.747-15.881-4.491-63.778-4.491-34.997 0-35.279 4.491-63.222 4.491h-60c-27.941 0-28.059-4.491-63.055-4.491-47.899 0-62.199 2.744-63.945 4.491h-59.295l-0.166-58.46z"/>
<path id="path13" fill="#a58429" d="m367.83 87.833h-279.5v360h279.5v-360zm-355.75 378.17c1.741-1.743 4.479-57.258 4.479-105.06 0-34.923-4.479-34.589-4.479-62.472v-60.47c0-27.883 4.479-28.02 4.479-62.943 0-47.799-2.738-102.84-4.479-104.59v-58.394h58.946c1.742 1.742 16.208 4.481 63.988 4.481 34.909 0 35.117-4.481 62.989-4.481h60c27.873 0 27.913 4.481 62.823 4.481 47.779 0 62.245-2.739 63.986-4.481h59.113v58.394c-1.742 1.742-4.479 56.788-4.479 104.59 0 34.923 4.479 35.06 4.479 62.943v60.471c0 27.883-4.479 27.549-4.479 62.472 0 47.8 2.737 103.31 4.479 105.06v57.923h-58.922c-1.741-1.742-16.231-4.48-64.011-4.48-34.909 0-35.116 4.48-62.989 4.48h-60c-27.872 0-27.914-4.48-62.823-4.48-47.78 0-62.435 2.738-64.177 4.48h-58.757l-0.166-57.92z"/>
<path id="path15" fill="#a9872e" d="m367.83 87.833h-279.5v360h279.5v-360zm-355.22 378.17c1.737-1.739 4.469-57.555 4.469-105.25 0-34.85-4.469-34.452-4.469-62.276v-60.471c0-27.824 4.469-27.897 4.469-62.747 0-47.698-2.731-103.04-4.469-104.78v-57.855h58.408c1.737 1.738 16.559 4.472 64.22 4.472 34.822 0 34.955-4.472 62.757-4.472h60c27.803 0 27.769 4.472 62.592 4.472 47.66 0 62.48-2.733 64.218-4.472h58.575v57.855c-1.738 1.739-4.469 57.084-4.469 104.78 0 34.85 4.469 34.923 4.469 62.747v60.471c0 27.824-4.469 27.427-4.469 62.276 0 47.698 2.73 103.51 4.469 105.25v57.385h-58.385c-1.736-1.739-16.582-4.472-64.242-4.472-34.823 0-34.955 4.472-62.758 4.472h-60c-27.802 0-27.77-4.472-62.592-4.472-47.661 0-62.67 2.732-64.408 4.472h-58.22l-0.165-57.38z"/>
<path id="path17" fill="#ac8b34" d="m367.83 87.833h-279.5v360h279.5v-360zm-354.68 378.17c1.732-1.735 4.458-57.851 4.458-105.45 0-34.776-4.458-34.315-4.458-62.081v-60.471c0-27.766 4.458-27.775 4.458-62.552 0-47.598-2.725-103.24-4.458-104.98v-57.316h57.869c1.733 1.734 16.91 4.462 64.452 4.462 34.735 0 34.792-4.462 62.525-4.462h60c27.733 0 27.625 4.462 62.36 4.462 47.541 0 62.717-2.728 64.449-4.462h58.036v57.316c-1.732 1.735-4.457 57.38-4.457 104.98 0 34.776 4.457 34.786 4.457 62.552v60.471c0 27.766-4.457 27.305-4.457 62.081 0 47.598 2.725 103.71 4.457 105.45v56.846h-57.845c-1.732-1.734-16.934-4.461-64.475-4.461-34.735 0-34.792 4.461-62.525 4.461h-60c-27.733 0-27.625-4.461-62.36-4.461-47.542 0-62.906 2.727-64.64 4.461h-57.682l-0.164-56.85z"/>
<path id="path19" fill="#b08e39" d="m367.83 87.834h-279.5v360h279.5v-360zm-354.14 378.17c1.729-1.732 4.446-58.146 4.446-105.64 0-34.702-4.446-34.178-4.446-61.885v-60.47c0-27.707 4.446-27.653 4.446-62.356 0-47.497-2.718-103.44-4.446-105.17v-56.779h57.33c1.729 1.731 17.262 4.453 64.685 4.453 34.648 0 34.63-4.453 62.293-4.453h60c27.664 0 27.48 4.453 62.129 4.453 47.422 0 62.953-2.722 64.681-4.453h57.498v56.778c-1.729 1.731-4.446 57.676-4.446 105.17 0 34.703 4.446 34.649 4.446 62.356v60.471c0 27.707-4.446 27.183-4.446 61.885 0 47.498 2.717 103.91 4.446 105.64v56.308h-57.308c-1.728-1.731-17.285-4.452-64.707-4.452-34.648 0-34.629 4.452-62.293 4.452h-60c-27.664 0-27.48-4.452-62.128-4.452-47.423 0-63.143 2.721-64.872 4.452h-57.143l-0.165-56.31z"/>
<path id="path21" fill="#b4923f" d="m367.83 87.833h-279.5v360h279.5v-360zm-353.6 378.17c1.724-1.729 4.436-58.443 4.436-105.84 0-34.629-4.436-34.041-4.436-61.689v-60.471c0-27.648 4.436-27.531 4.436-62.161 0-47.396-2.711-103.64-4.436-105.37v-56.24h56.792c1.725 1.727 17.612 4.444 64.916 4.444 34.562 0 34.468-4.444 62.062-4.444h60c27.594 0 27.336 4.444 61.897 4.444 47.302 0 63.188-2.717 64.912-4.444h56.96v56.24c-1.725 1.728-4.436 57.972-4.436 105.37 0 34.629 4.436 34.513 4.436 62.161v60.471c0 27.648-4.436 27.061-4.436 61.689 0 47.396 2.711 104.11 4.436 105.84v55.77h-56.769c-1.724-1.729-17.636-4.443-64.938-4.443-34.562 0-34.468 4.443-62.062 4.443h-60c-27.594 0-27.336-4.443-61.897-4.443-47.304 0-63.378 2.715-65.103 4.443h-56.605l-0.165-55.77z"/>
<path id="path23" fill="#b89545" d="m367.83 87.833h-279.5v360h279.5v-360zm-353.06 378.17c1.72-1.725 4.424-58.738 4.424-106.04 0-34.556-4.424-33.904-4.424-61.494v-60.471c0-27.589 4.424-27.409 4.424-61.965 0-47.297-2.705-103.84-4.424-105.56v-55.701h56.253c1.72 1.724 17.963 4.434 65.148 4.434 34.474 0 34.305-4.434 61.829-4.434h60c27.524 0 27.191 4.434 61.666 4.434 47.183 0 63.424-2.71 65.144-4.434h56.421v55.701c-1.721 1.724-4.424 58.268-4.424 105.56 0 34.556 4.424 34.376 4.424 61.965v60.471c0 27.59-4.424 26.938-4.424 61.494 0 47.297 2.703 104.31 4.424 106.04v55.23h-56.23c-1.719-1.724-17.986-4.433-65.17-4.433-34.475 0-34.306 4.433-61.83 4.433h-60c-27.524 0-27.191-4.433-61.666-4.433-47.185 0-63.613 2.709-65.334 4.433h-56.067l-0.164-55.23z"/>
<path id="path25" fill="#bc994a" d="m367.83 87.834h-279.5v360h279.5v-360zm-352.52 378.17c1.715-1.722 4.413-59.035 4.413-106.23 0-34.482-4.413-33.768-4.413-61.299v-60.471c0-27.531 4.413-27.287 4.413-61.77 0-47.195-2.698-104.04-4.413-105.76v-55.162h55.715c1.716 1.721 18.314 4.425 65.38 4.425 34.388 0 34.143-4.425 61.598-4.425h60c27.455 0 27.047 4.425 61.435 4.425 47.063 0 63.66-2.704 65.375-4.425h55.883v55.163c-1.716 1.72-4.413 58.564-4.413 105.76 0 34.482 4.413 34.239 4.413 61.77v60.471c0 27.531-4.413 26.816-4.413 61.299 0 47.195 2.697 104.51 4.413 106.23v54.692h-55.694c-1.715-1.721-18.338-4.424-65.402-4.424-34.387 0-34.143 4.424-61.598 4.424h-60c-27.455 0-27.047-4.424-61.435-4.424-47.065 0-63.849 2.703-65.565 4.424h-55.529l-0.163-54.69z"/>
<path id="path27" fill="#c09d50" d="m367.83 87.833h-279.5v360h279.5v-360zm-351.98 378.17c1.711-1.718 4.401-59.331 4.401-106.43 0-34.409-4.401-33.631-4.401-61.104v-60.47c0-27.472 4.401-27.165 4.401-61.574 0-47.095-2.69-104.24-4.401-105.96v-54.625h55.176c1.712 1.716 18.666 4.416 65.612 4.416 34.3 0 33.981-4.416 61.366-4.416h60c27.386 0 26.902 4.416 61.203 4.416 46.944 0 63.896-2.699 65.606-4.416h55.345v54.625c-1.712 1.717-4.402 58.86-4.402 105.96 0 34.409 4.402 34.103 4.402 61.574v60.471c0 27.473-4.402 26.694-4.402 61.104 0 47.095 2.69 104.71 4.402 106.43v54.154h-55.154c-1.71-1.717-18.688-4.414-65.635-4.414-34.299 0-33.979 4.414-61.365 4.414h-60c-27.386 0-26.902-4.414-61.203-4.414-46.947 0-64.085 2.697-65.797 4.414h-54.991l-0.173-54.15z"/>
<path id="path29" fill="#c4a056" d="m367.83 87.834h-279.5v360h279.5v-360zm-351.44 378.17c1.706-1.714 4.391-59.627 4.391-106.62 0-34.336-4.391-33.495-4.391-60.908v-60.471c0-27.414 4.391-27.043 4.391-61.378 0-46.995-2.685-104.44-4.391-106.15v-54.086h54.638c1.707 1.713 19.016 4.406 65.843 4.406 34.213 0 33.818-4.406 61.134-4.406h60c27.316 0 26.758 4.406 60.972 4.406 46.825 0 64.132-2.693 65.838-4.406h54.806v54.086c-1.707 1.713-4.391 59.156-4.391 106.15 0 34.335 4.391 33.964 4.391 61.378v60.471c0 27.413-4.391 26.572-4.391 60.908 0 46.994 2.684 104.91 4.391 106.62v53.615h-54.616c-1.705-1.713-19.04-4.404-65.865-4.404-34.214 0-33.818 4.404-61.135 4.404h-60c-27.316 0-26.758-4.404-60.971-4.404-46.827 0-64.322 2.691-66.029 4.404h-54.453l-0.162-53.62z"/>
<path id="path31" fill="#c8a45c" d="m367.83 87.833h-279.5v360h279.5v-360zm-350.91 378.17c1.702-1.711 4.38-59.923 4.38-106.82 0-34.262-4.38-33.357-4.38-60.712v-60.471c0-27.354 4.38-26.921 4.38-61.183 0-46.895-2.678-104.64-4.38-106.35v-53.547h54.1c1.703 1.709 19.368 4.396 66.075 4.396 34.126 0 33.656-4.396 60.902-4.396h60c27.246 0 26.614 4.396 60.74 4.396 46.706 0 64.367-2.687 66.069-4.396h54.268v53.548c-1.703 1.709-4.38 59.452-4.38 106.35 0 34.262 4.38 33.828 4.38 61.183v60.471c0 27.354-4.38 26.45-4.38 60.712 0 46.895 2.677 105.11 4.38 106.82v53.077h-54.077c-1.701-1.71-19.391-4.396-66.098-4.396-34.126 0-33.656 4.396-60.902 4.396h-60c-27.246 0-26.613-4.396-60.74-4.396-46.708 0-64.557 2.686-66.26 4.396h-53.915l-0.162-53.08z"/>
<path id="path33" fill="#cca861" d="m367.83 87.834h-279.5v360h279.5v-360zm-350.37 378.17c1.698-1.707 4.368-60.22 4.368-107.01 0-34.188-4.368-33.221-4.368-60.517v-60.47c0-27.296 4.368-26.799 4.368-60.987 0-46.794-2.67-104.84-4.368-106.54v-53.01h53.562c1.698 1.706 19.718 4.387 66.307 4.387 34.039 0 33.494-4.387 60.67-4.387h60c27.177 0 26.47 4.387 60.509 4.387 46.587 0 64.603-2.681 66.301-4.387h53.729v53.009c-1.698 1.706-4.368 59.749-4.368 106.54 0 34.188 4.368 33.69 4.368 60.987v60.471c0 27.296-4.368 26.328-4.368 60.517 0 46.793 2.67 105.31 4.368 107.01v52.539h-53.539c-1.697-1.706-19.742-4.386-66.329-4.386-34.04 0-33.494 4.386-60.671 4.386h-60c-27.177 0-26.469-4.386-60.508-4.386-46.589 0-64.793 2.68-66.492 4.386h-53.377l-0.162-52.54z"/>
<path id="path35" fill="#d0ac67" d="m367.83 87.833h-279.5v360h279.5v-360zm-349.83 378.17c1.693-1.703 4.357-60.516 4.357-107.21 0-34.11-4.357-33.08-4.357-60.32v-60.47c0-27.237 4.357-26.677 4.357-60.792 0-46.69-2.664-105.04-4.357-106.74v-52.47h53.023c1.694 1.702 20.069 4.377 66.539 4.377 33.95 0 33.33-4.377 60.44-4.377h60c27.107 0 26.325 4.377 60.277 4.377 46.468 0 64.839-2.676 66.532-4.377h53.191v52.471c-1.694 1.702-4.357 60.044-4.357 106.74 0 34.115 4.357 33.554 4.357 60.792v60.471c0 27.237-4.357 26.206-4.357 60.321 0 46.692 2.663 105.5 4.357 107.21v52h-53c-1.692-1.702-20.093-4.376-66.562-4.376-33.952 0-33.331 4.376-60.438 4.376h-60c-27.107 0-26.325-4.376-60.277-4.376-46.47 0-65.029 2.674-66.723 4.376h-52.839l-0.161-52z"/>
</g>
<path id="path39" d="m650.47 886.36h-589v-748h589v748zm-9.692-738.25h-569.62v728.5h569.62v-728.5z" fill="#806714"/>
<path id="path50" fill="url(#SVGID_1_)" d="m775.47 1012.4v-104.94c-3.388-3.406-8.714-120.09-8.714-213.47 0-68.23 8.714-67.11 8.714-121.58v-120.94c0-54.474-8.714-52.412-8.714-120.64 0-93.386 5.326-211.01 8.714-214.42v-104l-112.67 114v772l112.67 114z"/>
<path id="path59" fill="url(#SVGID_2_)" d="m48.8 899.36v-773l-113.33-114v104c3.386 3.404 8.714 121.03 8.714 214.42 0 68.23-8.714 66.168-8.714 120.64v120.94c0 54.474 8.714 53.354 8.714 121.58 0 93.384-5.328 210.07-8.714 213.47l0.322 104.94 113.01-113z"/>
<path id="path68" fill="url(#SVGID_3_)" d="m48.478 899.36 624-1 102.67 114h-106c-3.384-3.404-40.186-8.752-133.12-8.752-67.904 0-66.662 8.752-120.88 8.752h-120c-54.214 0-52.648-8.752-120.55-8.752-92.938 0-130.06 5.348-133.45 8.752h-105.68l113.01-113z"/>
<path id="path77" fill="url(#SVGID_4_)" d="m48.8 126.36h614l112.67-114h-106.38c-3.386 3.402-40.128 8.754-133.06 8.754-67.904 0-66.34-8.754-120.55-8.754h-120c-54.214 0-52.972 8.754-120.88 8.754-92.942 0-129.69-5.352-133.08-8.754h-106.05l113.33 114z"/>
<path id="path81" d="m659.62 896.36h-610v-768h610v768zm-8-760h-594v752h594v-752z" stroke="#9d7d1f" stroke-width="2" fill="#d0ac67"/>
<path id="path83" d="m675.62 912.36h-642v-800h642v800zm-8-792h-626v784h626v-784z" stroke="#9d7d1f" stroke-width="2" fill="#d0ac67"/>
<g id="g6776" transform="matrix(2 0 0 2 -1301.7 -21.27)">
<path id="path6573" d="m684.02 443.66a0.67174 0.56568 0 0 0 -0.66797 0.52929h-0.70898v5.8692h0.70703a0.67174 0.56568 0 0 0 0.66992 0.5332 0.67174 0.56568 0 0 0 0.66992 -0.5332h0.70899v-5.8692h-0.70704a0.67174 0.56568 0 0 0 -0.67187 -0.52929z" fill="url(#radialGradient6586)"/>
<path id="path6588" d="m684.02 435.66a0.67174 0.56568 0 0 0 -0.66797 0.52929h-0.70898v5.8692h0.70703a0.67174 0.56568 0 0 0 0.66992 0.5332 0.67174 0.56568 0 0 0 0.66992 -0.5332h0.70899v-5.8692h-0.70704a0.67174 0.56568 0 0 0 -0.67187 -0.52929z" fill="url(#radialGradient6590)"/>
<path id="path6592" d="m684.02 427.66a0.67174 0.56568 0 0 0 -0.66797 0.52929h-0.70898v5.8692h0.70703a0.67174 0.56568 0 0 0 0.66992 0.5332 0.67174 0.56568 0 0 0 0.66992 -0.5332h0.70899v-5.8692h-0.70704a0.67174 0.56568 0 0 0 -0.67187 -0.52929z" fill="url(#radialGradient6596)"/>
<path id="path6594" d="m684.02 419.66a0.67174 0.56568 0 0 0 -0.66797 0.52929h-0.70898v5.8692h0.70703a0.67174 0.56568 0 0 0 0.66992 0.5332 0.67174 0.56568 0 0 0 0.66992 -0.5332h0.70899v-5.8692h-0.70704a0.67174 0.56568 0 0 0 -0.67187 -0.52929z" fill="url(#radialGradient6598)"/>
<path id="path6600" d="m684.02 411.66a0.67174 0.56568 0 0 0 -0.66797 0.52929h-0.70898v5.8692h0.70703a0.67174 0.56568 0 0 0 0.66992 0.5332 0.67174 0.56568 0 0 0 0.66992 -0.5332h0.70899v-5.8692h-0.70704a0.67174 0.56568 0 0 0 -0.67187 -0.52929z" fill="url(#radialGradient6608)"/>
<path id="path6602" d="m684.02 403.66a0.67174 0.56568 0 0 0 -0.66797 0.52929h-0.70898v5.8692h0.70703a0.67174 0.56568 0 0 0 0.66992 0.5332 0.67174 0.56568 0 0 0 0.66992 -0.5332h0.70899v-5.8692h-0.70704a0.67174 0.56568 0 0 0 -0.67187 -0.52929z" fill="url(#radialGradient6610)"/>
<path id="path6604" d="m684.02 395.66a0.67174 0.56568 0 0 0 -0.66797 0.52929h-0.70898v5.8692h0.70703a0.67174 0.56568 0 0 0 0.66992 0.5332 0.67174 0.56568 0 0 0 0.66992 -0.5332h0.70899v-5.8692h-0.70704a0.67174 0.56568 0 0 0 -0.67187 -0.52929z" fill="url(#radialGradient6612)"/>
<path id="path6606" d="m684.02 387.66a0.67174 0.56568 0 0 0 -0.66797 0.52929h-0.70898v5.8692h0.70703a0.67174 0.56568 0 0 0 0.66992 0.5332 0.67174 0.56568 0 0 0 0.66992 -0.5332h0.70899v-5.8692h-0.70704a0.67174 0.56568 0 0 0 -0.67187 -0.52929z" fill="url(#radialGradient6614)"/>
<path id="path6616" d="m684.02 379.66a0.67174 0.56568 0 0 0 -0.66797 0.52929h-0.70898v5.8692h0.70703a0.67174 0.56568 0 0 0 0.66992 0.5332 0.67174 0.56568 0 0 0 0.66992 -0.5332h0.70899v-5.8692h-0.70704a0.67174 0.56568 0 0 0 -0.67187 -0.52929z" fill="url(#radialGradient6632)"/>
<path id="path6618" d="m684.02 371.66a0.67174 0.56568 0 0 0 -0.66797 0.52929h-0.70898v5.8692h0.70703a0.67174 0.56568 0 0 0 0.66992 0.5332 0.67174 0.56568 0 0 0 0.66992 -0.5332h0.70899v-5.8692h-0.70704a0.67174 0.56568 0 0 0 -0.67187 -0.52929z" fill="url(#radialGradient6634)"/>
<path id="path6620" d="m684.02 363.66a0.67174 0.56568 0 0 0 -0.66797 0.52929h-0.70898v5.8692h0.70703a0.67174 0.56568 0 0 0 0.66992 0.5332 0.67174 0.56568 0 0 0 0.66992 -0.5332h0.70899v-5.8692h-0.70704a0.67174 0.56568 0 0 0 -0.67187 -0.52929z" fill="url(#radialGradient6636)"/>
<path id="path6622" d="m684.02 355.66a0.67174 0.56568 0 0 0 -0.66797 0.52929h-0.70898v5.8692h0.70703a0.67174 0.56568 0 0 0 0.66992 0.5332 0.67174 0.56568 0 0 0 0.66992 -0.5332h0.70899v-5.8692h-0.70704a0.67174 0.56568 0 0 0 -0.67187 -0.52929z" fill="url(#radialGradient6638)"/>
<path id="path6624" d="m684.02 347.66a0.67174 0.56568 0 0 0 -0.66797 0.52929h-0.70898v5.8692h0.70703a0.67174 0.56568 0 0 0 0.66992 0.5332 0.67174 0.56568 0 0 0 0.66992 -0.5332h0.70899v-5.8692h-0.70704a0.67174 0.56568 0 0 0 -0.67187 -0.52929z" fill="url(#radialGradient6640)"/>
<path id="path6626" d="m684.02 339.66a0.67174 0.56568 0 0 0 -0.66797 0.52929h-0.70898v5.8692h0.70703a0.67174 0.56568 0 0 0 0.66992 0.5332 0.67174 0.56568 0 0 0 0.66992 -0.5332h0.70899v-5.8692h-0.70704a0.67174 0.56568 0 0 0 -0.67187 -0.52929z" fill="url(#radialGradient6642)"/>
<path id="path6628" d="m684.02 331.66a0.67174 0.56568 0 0 0 -0.66797 0.52929h-0.70898v5.8692h0.70703a0.67174 0.56568 0 0 0 0.66992 0.5332 0.67174 0.56568 0 0 0 0.66992 -0.5332h0.70899v-5.8692h-0.70704a0.67174 0.56568 0 0 0 -0.67187 -0.52929z" fill="url(#radialGradient6644)"/>
<path id="path6630" d="m684.02 323.66a0.67174 0.56568 0 0 0 -0.66797 0.52929h-0.70898v5.8692h0.70703a0.67174 0.56568 0 0 0 0.66992 0.5332 0.67174 0.56568 0 0 0 0.66992 -0.5332h0.70899v-5.8692h-0.70704a0.67174 0.56568 0 0 0 -0.67187 -0.52929z" fill="url(#radialGradient6646)"/>
<path id="path6648" d="m684.02 315.66a0.67174 0.56568 0 0 0 -0.66797 0.52929h-0.70898v5.8692h0.70703a0.67174 0.56568 0 0 0 0.66992 0.5332 0.67174 0.56568 0 0 0 0.66992 -0.5332h0.70899v-5.8692h-0.70704a0.67174 0.56568 0 0 0 -0.67187 -0.52929z" fill="url(#radialGradient6680)"/>
<path id="path6650" d="m684.02 307.66a0.67174 0.56568 0 0 0 -0.66797 0.52929h-0.70898v5.8692h0.70703a0.67174 0.56568 0 0 0 0.66992 0.5332 0.67174 0.56568 0 0 0 0.66992 -0.5332h0.70899v-5.8692h-0.70704a0.67174 0.56568 0 0 0 -0.67187 -0.52929z" fill="url(#radialGradient6682)"/>
<path id="path6652" d="m684.02 299.66a0.67174 0.56568 0 0 0 -0.66797 0.52929h-0.70898v5.8692h0.70703a0.67174 0.56568 0 0 0 0.66992 0.5332 0.67174 0.56568 0 0 0 0.66992 -0.5332h0.70899v-5.8692h-0.70704a0.67174 0.56568 0 0 0 -0.67187 -0.52929z" fill="url(#radialGradient6684)"/>
<path id="path6654" d="m684.02 291.66a0.67174 0.56568 0 0 0 -0.66797 0.52929h-0.70898v5.8692h0.70703a0.67174 0.56568 0 0 0 0.66992 0.5332 0.67174 0.56568 0 0 0 0.66992 -0.5332h0.70899v-5.8692h-0.70704a0.67174 0.56568 0 0 0 -0.67187 -0.52929z" fill="url(#radialGradient6686)"/>
<path id="path6656" d="m684.02 283.66a0.67174 0.56568 0 0 0 -0.66797 0.52929h-0.70898v5.8692h0.70703a0.67174 0.56568 0 0 0 0.66992 0.5332 0.67174 0.56568 0 0 0 0.66992 -0.5332h0.70899v-5.8692h-0.70704a0.67174 0.56568 0 0 0 -0.67187 -0.52929z" fill="url(#radialGradient6688)"/>
<path id="path6658" d="m684.02 275.66a0.67174 0.56568 0 0 0 -0.66797 0.52929h-0.70898v5.8692h0.70703a0.67174 0.56568 0 0 0 0.66992 0.5332 0.67174 0.56568 0 0 0 0.66992 -0.5332h0.70899v-5.8692h-0.70704a0.67174 0.56568 0 0 0 -0.67187 -0.52929z" fill="url(#radialGradient6690)"/>
<path id="path6660" d="m684.02 267.66a0.67174 0.56568 0 0 0 -0.66797 0.52929h-0.70898v5.8692h0.70703a0.67174 0.56568 0 0 0 0.66992 0.5332 0.67174 0.56568 0 0 0 0.66992 -0.5332h0.70899v-5.8692h-0.70704a0.67174 0.56568 0 0 0 -0.67187 -0.52929z" fill="url(#radialGradient6692)"/>
<path id="path6662" d="m684.02 259.66a0.67174 0.56568 0 0 0 -0.66797 0.52929h-0.70898v5.8692h0.70703a0.67174 0.56568 0 0 0 0.66992 0.5332 0.67174 0.56568 0 0 0 0.66992 -0.5332h0.70899v-5.8692h-0.70704a0.67174 0.56568 0 0 0 -0.67187 -0.52929z" fill="url(#radialGradient6694)"/>
<path id="path6664" d="m684.02 251.66a0.67174 0.56568 0 0 0 -0.66797 0.52929h-0.70898v5.8692h0.70703a0.67174 0.56568 0 0 0 0.66992 0.5332 0.67174 0.56568 0 0 0 0.66992 -0.5332h0.70899v-5.8692h-0.70704a0.67174 0.56568 0 0 0 -0.67187 -0.52929z" fill="url(#radialGradient6696)"/>
<path id="path6666" d="m684.02 243.66a0.67174 0.56568 0 0 0 -0.66797 0.52929h-0.70898v5.8692h0.70703a0.67174 0.56568 0 0 0 0.66992 0.5332 0.67174 0.56568 0 0 0 0.66992 -0.5332h0.70899v-5.8692h-0.70704a0.67174 0.56568 0 0 0 -0.67187 -0.52929z" fill="url(#radialGradient6698)"/>
<path id="path6668" d="m684.02 235.66a0.67174 0.56568 0 0 0 -0.66797 0.52929h-0.70898v5.8692h0.70703a0.67174 0.56568 0 0 0 0.66992 0.5332 0.67174 0.56568 0 0 0 0.66992 -0.5332h0.70899v-5.8692h-0.70704a0.67174 0.56568 0 0 0 -0.67187 -0.52929z" fill="url(#radialGradient6700)"/>
<path id="path6670" d="m684.02 227.66a0.67174 0.56568 0 0 0 -0.66797 0.52929h-0.70898v5.8692h0.70703a0.67174 0.56568 0 0 0 0.66992 0.5332 0.67174 0.56568 0 0 0 0.66992 -0.5332h0.70899v-5.8692h-0.70704a0.67174 0.56568 0 0 0 -0.67187 -0.52929z" fill="url(#radialGradient6702)"/>
<path id="path6672" d="m684.02 219.66a0.67174 0.56568 0 0 0 -0.66797 0.52929h-0.70898v5.8692h0.70703a0.67174 0.56568 0 0 0 0.66992 0.5332 0.67174 0.56568 0 0 0 0.66992 -0.5332h0.70899v-5.8692h-0.70704a0.67174 0.56568 0 0 0 -0.67187 -0.52929z" fill="url(#radialGradient6704)"/>
<path id="path6674" d="m684.02 211.66a0.67174 0.56568 0 0 0 -0.66797 0.52929h-0.70898v5.8692h0.70703a0.67174 0.56568 0 0 0 0.66992 0.5332 0.67174 0.56568 0 0 0 0.66992 -0.5332h0.70899v-5.8692h-0.70704a0.67174 0.56568 0 0 0 -0.67187 -0.52929z" fill="url(#radialGradient6706)"/>
<path id="path6676" d="m684.02 203.66a0.67174 0.56568 0 0 0 -0.66797 0.52929h-0.70898v5.8692h0.70703a0.67174 0.56568 0 0 0 0.66992 0.5332 0.67174 0.56568 0 0 0 0.66992 -0.5332h0.70899v-5.8692h-0.70704a0.67174 0.56568 0 0 0 -0.67187 -0.52929z" fill="url(#radialGradient6708)"/>
<path id="path6678" d="m684.02 195.66a0.67174 0.56568 0 0 0 -0.66797 0.52929h-0.70898v5.8692h0.70703a0.67174 0.56568 0 0 0 0.66992 0.5332 0.67174 0.56568 0 0 0 0.66992 -0.5332h0.70899v-5.8692h-0.70704a0.67174 0.56568 0 0 0 -0.67187 -0.52929z" fill="url(#radialGradient6710)"/>
<path id="path6712" d="m684.02 187.66a0.67174 0.56568 0 0 0 -0.66797 0.52929h-0.70898v5.8692h0.70703a0.67174 0.56568 0 0 0 0.66992 0.5332 0.67174 0.56568 0 0 0 0.66992 -0.5332h0.70899v-5.8692h-0.70704a0.67174 0.56568 0 0 0 -0.67187 -0.52929z" fill="url(#radialGradient6744)"/>
<path id="path6714" d="m684.02 179.66a0.67174 0.56568 0 0 0 -0.66797 0.52929h-0.70898v5.8692h0.70703a0.67174 0.56568 0 0 0 0.66992 0.5332 0.67174 0.56568 0 0 0 0.66992 -0.5332h0.70899v-5.8692h-0.70704a0.67174 0.56568 0 0 0 -0.67187 -0.52929z" fill="url(#radialGradient6746)"/>
<path id="path6716" d="m684.02 171.66a0.67174 0.56568 0 0 0 -0.66797 0.52929h-0.70898v5.8692h0.70703a0.67174 0.56568 0 0 0 0.66992 0.5332 0.67174 0.56568 0 0 0 0.66992 -0.5332h0.70899v-5.8692h-0.70704a0.67174 0.56568 0 0 0 -0.67187 -0.52929z" fill="url(#radialGradient6748)"/>
<path id="path6718" d="m684.02 163.66a0.67174 0.56568 0 0 0 -0.66797 0.52929h-0.70898v5.8692h0.70703a0.67174 0.56568 0 0 0 0.66992 0.5332 0.67174 0.56568 0 0 0 0.66992 -0.5332h0.70899v-5.8692h-0.70704a0.67174 0.56568 0 0 0 -0.67187 -0.52929z" fill="url(#radialGradient6750)"/>
<path id="path6720" d="m684.02 155.66a0.67174 0.56568 0 0 0 -0.66797 0.52929h-0.70898v5.8692h0.70703a0.67174 0.56568 0 0 0 0.66992 0.5332 0.67174 0.56568 0 0 0 0.66992 -0.5332h0.70899v-5.8692h-0.70704a0.67174 0.56568 0 0 0 -0.67187 -0.52929z" fill="url(#radialGradient6752)"/>
<path id="path6722" d="m684.02 147.66a0.67174 0.56568 0 0 0 -0.66797 0.52929h-0.70898v5.8692h0.70703a0.67174 0.56568 0 0 0 0.66992 0.5332 0.67174 0.56568 0 0 0 0.66992 -0.5332h0.70899v-5.8692h-0.70704a0.67174 0.56568 0 0 0 -0.67187 -0.52929z" fill="url(#radialGradient6754)"/>
<path id="path6724" d="m684.02 139.66a0.67174 0.56568 0 0 0 -0.66797 0.52929h-0.70898v5.8692h0.70703a0.67174 0.56568 0 0 0 0.66992 0.5332 0.67174 0.56568 0 0 0 0.66992 -0.5332h0.70899v-5.8692h-0.70704a0.67174 0.56568 0 0 0 -0.67187 -0.52929z" fill="url(#radialGradient6756)"/>
<path id="path6726" d="m684.02 131.66a0.67174 0.56568 0 0 0 -0.66797 0.52929h-0.70898v5.8692h0.70703a0.67174 0.56568 0 0 0 0.66992 0.5332 0.67174 0.56568 0 0 0 0.66992 -0.5332h0.70899v-5.8692h-0.70704a0.67174 0.56568 0 0 0 -0.67187 -0.52929z" fill="url(#radialGradient6758)"/>
<path id="path6728" d="m684.02 123.66a0.67174 0.56568 0 0 0 -0.66797 0.52929h-0.70898v5.8692h0.70703a0.67174 0.56568 0 0 0 0.66992 0.5332 0.67174 0.56568 0 0 0 0.66992 -0.5332h0.70899v-5.8692h-0.70704a0.67174 0.56568 0 0 0 -0.67187 -0.52929z" fill="url(#radialGradient6760)"/>
<path id="path6730" d="m684.02 115.66a0.67174 0.56568 0 0 0 -0.66797 0.52929h-0.70898v5.8692h0.70703a0.67174 0.56568 0 0 0 0.66992 0.5332 0.67174 0.56568 0 0 0 0.66992 -0.5332h0.70899v-5.8692h-0.70704a0.67174 0.56568 0 0 0 -0.67187 -0.52929z" fill="url(#radialGradient6762)"/>
<path id="path6732" d="m684.02 107.66a0.67174 0.56568 0 0 0 -0.66797 0.52929h-0.70898v5.8692h0.70703a0.67174 0.56568 0 0 0 0.66992 0.5332 0.67174 0.56568 0 0 0 0.66992 -0.5332h0.70899v-5.8692h-0.70704a0.67174 0.56568 0 0 0 -0.67187 -0.52929z" fill="url(#radialGradient6764)"/>
<path id="path6734" d="m684.02 99.66a0.67174 0.56568 0 0 0 -0.66797 0.52929h-0.70898v5.8691h0.70703a0.67174 0.56568 0 0 0 0.66992 0.5332 0.67174 0.56568 0 0 0 0.66992 -0.5332h0.70899v-5.8691h-0.70704a0.67174 0.56568 0 0 0 -0.67187 -0.52929z" fill="url(#radialGradient6766)"/>
<path id="path6736" d="m684.02 91.66a0.67174 0.56568 0 0 0 -0.66797 0.52929h-0.70898v5.8692h0.70703a0.67174 0.56568 0 0 0 0.66992 0.5332 0.67174 0.56568 0 0 0 0.66992 -0.5332h0.70899v-5.8692h-0.70704a0.67174 0.56568 0 0 0 -0.67187 -0.52929z" fill="url(#radialGradient6768)"/>
<path id="path6738" d="m684.02 83.66a0.67174 0.56568 0 0 0 -0.66797 0.52929h-0.70898v5.8692h0.70703a0.67174 0.56568 0 0 0 0.66992 0.5332 0.67174 0.56568 0 0 0 0.66992 -0.5332h0.70899v-5.8692h-0.70704a0.67174 0.56568 0 0 0 -0.67187 -0.52929z" fill="url(#radialGradient6770)"/>
</g>
<g id="g6824" transform="matrix(2 0 0 2 -722.43 -21.27)">
<path id="path6826" d="m684.02 443.66a0.67174 0.56568 0 0 0 -0.66797 0.52929h-0.70898v5.8692h0.70703a0.67174 0.56568 0 0 0 0.66992 0.5332 0.67174 0.56568 0 0 0 0.66992 -0.5332h0.70899v-5.8692h-0.70704a0.67174 0.56568 0 0 0 -0.67187 -0.52929z" fill="url(#radialGradient6586)"/>
<path id="path6828" d="m684.02 435.66a0.67174 0.56568 0 0 0 -0.66797 0.52929h-0.70898v5.8692h0.70703a0.67174 0.56568 0 0 0 0.66992 0.5332 0.67174 0.56568 0 0 0 0.66992 -0.5332h0.70899v-5.8692h-0.70704a0.67174 0.56568 0 0 0 -0.67187 -0.52929z" fill="url(#radialGradient6590)"/>
<path id="path6830" d="m684.02 427.66a0.67174 0.56568 0 0 0 -0.66797 0.52929h-0.70898v5.8692h0.70703a0.67174 0.56568 0 0 0 0.66992 0.5332 0.67174 0.56568 0 0 0 0.66992 -0.5332h0.70899v-5.8692h-0.70704a0.67174 0.56568 0 0 0 -0.67187 -0.52929z" fill="url(#radialGradient6596)"/>
<path id="path6832" d="m684.02 419.66a0.67174 0.56568 0 0 0 -0.66797 0.52929h-0.70898v5.8692h0.70703a0.67174 0.56568 0 0 0 0.66992 0.5332 0.67174 0.56568 0 0 0 0.66992 -0.5332h0.70899v-5.8692h-0.70704a0.67174 0.56568 0 0 0 -0.67187 -0.52929z" fill="url(#radialGradient6598)"/>
<path id="path6834" d="m684.02 411.66a0.67174 0.56568 0 0 0 -0.66797 0.52929h-0.70898v5.8692h0.70703a0.67174 0.56568 0 0 0 0.66992 0.5332 0.67174 0.56568 0 0 0 0.66992 -0.5332h0.70899v-5.8692h-0.70704a0.67174 0.56568 0 0 0 -0.67187 -0.52929z" fill="url(#radialGradient6608)"/>
<path id="path6836" d="m684.02 403.66a0.67174 0.56568 0 0 0 -0.66797 0.52929h-0.70898v5.8692h0.70703a0.67174 0.56568 0 0 0 0.66992 0.5332 0.67174 0.56568 0 0 0 0.66992 -0.5332h0.70899v-5.8692h-0.70704a0.67174 0.56568 0 0 0 -0.67187 -0.52929z" fill="url(#radialGradient6610)"/>
<path id="path6838" d="m684.02 395.66a0.67174 0.56568 0 0 0 -0.66797 0.52929h-0.70898v5.8692h0.70703a0.67174 0.56568 0 0 0 0.66992 0.5332 0.67174 0.56568 0 0 0 0.66992 -0.5332h0.70899v-5.8692h-0.70704a0.67174 0.56568 0 0 0 -0.67187 -0.52929z" fill="url(#radialGradient6612)"/>
<path id="path6840" d="m684.02 387.66a0.67174 0.56568 0 0 0 -0.66797 0.52929h-0.70898v5.8692h0.70703a0.67174 0.56568 0 0 0 0.66992 0.5332 0.67174 0.56568 0 0 0 0.66992 -0.5332h0.70899v-5.8692h-0.70704a0.67174 0.56568 0 0 0 -0.67187 -0.52929z" fill="url(#radialGradient6614)"/>
<path id="path6842" d="m684.02 379.66a0.67174 0.56568 0 0 0 -0.66797 0.52929h-0.70898v5.8692h0.70703a0.67174 0.56568 0 0 0 0.66992 0.5332 0.67174 0.56568 0 0 0 0.66992 -0.5332h0.70899v-5.8692h-0.70704a0.67174 0.56568 0 0 0 -0.67187 -0.52929z" fill="url(#radialGradient6632)"/>
<path id="path6844" d="m684.02 371.66a0.67174 0.56568 0 0 0 -0.66797 0.52929h-0.70898v5.8692h0.70703a0.67174 0.56568 0 0 0 0.66992 0.5332 0.67174 0.56568 0 0 0 0.66992 -0.5332h0.70899v-5.8692h-0.70704a0.67174 0.56568 0 0 0 -0.67187 -0.52929z" fill="url(#radialGradient6634)"/>
<path id="path6846" d="m684.02 363.66a0.67174 0.56568 0 0 0 -0.66797 0.52929h-0.70898v5.8692h0.70703a0.67174 0.56568 0 0 0 0.66992 0.5332 0.67174 0.56568 0 0 0 0.66992 -0.5332h0.70899v-5.8692h-0.70704a0.67174 0.56568 0 0 0 -0.67187 -0.52929z" fill="url(#radialGradient6636)"/>
<path id="path6848" d="m684.02 355.66a0.67174 0.56568 0 0 0 -0.66797 0.52929h-0.70898v5.8692h0.70703a0.67174 0.56568 0 0 0 0.66992 0.5332 0.67174 0.56568 0 0 0 0.66992 -0.5332h0.70899v-5.8692h-0.70704a0.67174 0.56568 0 0 0 -0.67187 -0.52929z" fill="url(#radialGradient6638)"/>
<path id="path6850" d="m684.02 347.66a0.67174 0.56568 0 0 0 -0.66797 0.52929h-0.70898v5.8692h0.70703a0.67174 0.56568 0 0 0 0.66992 0.5332 0.67174 0.56568 0 0 0 0.66992 -0.5332h0.70899v-5.8692h-0.70704a0.67174 0.56568 0 0 0 -0.67187 -0.52929z" fill="url(#radialGradient6640)"/>
<path id="path6852" d="m684.02 339.66a0.67174 0.56568 0 0 0 -0.66797 0.52929h-0.70898v5.8692h0.70703a0.67174 0.56568 0 0 0 0.66992 0.5332 0.67174 0.56568 0 0 0 0.66992 -0.5332h0.70899v-5.8692h-0.70704a0.67174 0.56568 0 0 0 -0.67187 -0.52929z" fill="url(#radialGradient6642)"/>
<path id="path6854" d="m684.02 331.66a0.67174 0.56568 0 0 0 -0.66797 0.52929h-0.70898v5.8692h0.70703a0.67174 0.56568 0 0 0 0.66992 0.5332 0.67174 0.56568 0 0 0 0.66992 -0.5332h0.70899v-5.8692h-0.70704a0.67174 0.56568 0 0 0 -0.67187 -0.52929z" fill="url(#radialGradient6644)"/>
<path id="path6856" d="m684.02 323.66a0.67174 0.56568 0 0 0 -0.66797 0.52929h-0.70898v5.8692h0.70703a0.67174 0.56568 0 0 0 0.66992 0.5332 0.67174 0.56568 0 0 0 0.66992 -0.5332h0.70899v-5.8692h-0.70704a0.67174 0.56568 0 0 0 -0.67187 -0.52929z" fill="url(#radialGradient6646)"/>
<path id="path6858" d="m684.02 315.66a0.67174 0.56568 0 0 0 -0.66797 0.52929h-0.70898v5.8692h0.70703a0.67174 0.56568 0 0 0 0.66992 0.5332 0.67174 0.56568 0 0 0 0.66992 -0.5332h0.70899v-5.8692h-0.70704a0.67174 0.56568 0 0 0 -0.67187 -0.52929z" fill="url(#radialGradient6680)"/>
<path id="path6860" d="m684.02 307.66a0.67174 0.56568 0 0 0 -0.66797 0.52929h-0.70898v5.8692h0.70703a0.67174 0.56568 0 0 0 0.66992 0.5332 0.67174 0.56568 0 0 0 0.66992 -0.5332h0.70899v-5.8692h-0.70704a0.67174 0.56568 0 0 0 -0.67187 -0.52929z" fill="url(#radialGradient6682)"/>
<path id="path6862" d="m684.02 299.66a0.67174 0.56568 0 0 0 -0.66797 0.52929h-0.70898v5.8692h0.70703a0.67174 0.56568 0 0 0 0.66992 0.5332 0.67174 0.56568 0 0 0 0.66992 -0.5332h0.70899v-5.8692h-0.70704a0.67174 0.56568 0 0 0 -0.67187 -0.52929z" fill="url(#radialGradient6684)"/>
<path id="path6864" d="m684.02 291.66a0.67174 0.56568 0 0 0 -0.66797 0.52929h-0.70898v5.8692h0.70703a0.67174 0.56568 0 0 0 0.66992 0.5332 0.67174 0.56568 0 0 0 0.66992 -0.5332h0.70899v-5.8692h-0.70704a0.67174 0.56568 0 0 0 -0.67187 -0.52929z" fill="url(#radialGradient6686)"/>
<path id="path6866" d="m684.02 283.66a0.67174 0.56568 0 0 0 -0.66797 0.52929h-0.70898v5.8692h0.70703a0.67174 0.56568 0 0 0 0.66992 0.5332 0.67174 0.56568 0 0 0 0.66992 -0.5332h0.70899v-5.8692h-0.70704a0.67174 0.56568 0 0 0 -0.67187 -0.52929z" fill="url(#radialGradient6688)"/>
<path id="path6868" d="m684.02 275.66a0.67174 0.56568 0 0 0 -0.66797 0.52929h-0.70898v5.8692h0.70703a0.67174 0.56568 0 0 0 0.66992 0.5332 0.67174 0.56568 0 0 0 0.66992 -0.5332h0.70899v-5.8692h-0.70704a0.67174 0.56568 0 0 0 -0.67187 -0.52929z" fill="url(#radialGradient6690)"/>
<path id="path6870" d="m684.02 267.66a0.67174 0.56568 0 0 0 -0.66797 0.52929h-0.70898v5.8692h0.70703a0.67174 0.56568 0 0 0 0.66992 0.5332 0.67174 0.56568 0 0 0 0.66992 -0.5332h0.70899v-5.8692h-0.70704a0.67174 0.56568 0 0 0 -0.67187 -0.52929z" fill="url(#radialGradient6692)"/>
<path id="path6872" d="m684.02 259.66a0.67174 0.56568 0 0 0 -0.66797 0.52929h-0.70898v5.8692h0.70703a0.67174 0.56568 0 0 0 0.66992 0.5332 0.67174 0.56568 0 0 0 0.66992 -0.5332h0.70899v-5.8692h-0.70704a0.67174 0.56568 0 0 0 -0.67187 -0.52929z" fill="url(#radialGradient6694)"/>
<path id="path6874" d="m684.02 251.66a0.67174 0.56568 0 0 0 -0.66797 0.52929h-0.70898v5.8692h0.70703a0.67174 0.56568 0 0 0 0.66992 0.5332 0.67174 0.56568 0 0 0 0.66992 -0.5332h0.70899v-5.8692h-0.70704a0.67174 0.56568 0 0 0 -0.67187 -0.52929z" fill="url(#radialGradient6696)"/>
<path id="path6876" d="m684.02 243.66a0.67174 0.56568 0 0 0 -0.66797 0.52929h-0.70898v5.8692h0.70703a0.67174 0.56568 0 0 0 0.66992 0.5332 0.67174 0.56568 0 0 0 0.66992 -0.5332h0.70899v-5.8692h-0.70704a0.67174 0.56568 0 0 0 -0.67187 -0.52929z" fill="url(#radialGradient6698)"/>
<path id="path6878" d="m684.02 235.66a0.67174 0.56568 0 0 0 -0.66797 0.52929h-0.70898v5.8692h0.70703a0.67174 0.56568 0 0 0 0.66992 0.5332 0.67174 0.56568 0 0 0 0.66992 -0.5332h0.70899v-5.8692h-0.70704a0.67174 0.56568 0 0 0 -0.67187 -0.52929z" fill="url(#radialGradient6700)"/>
<path id="path6880" d="m684.02 227.66a0.67174 0.56568 0 0 0 -0.66797 0.52929h-0.70898v5.8692h0.70703a0.67174 0.56568 0 0 0 0.66992 0.5332 0.67174 0.56568 0 0 0 0.66992 -0.5332h0.70899v-5.8692h-0.70704a0.67174 0.56568 0 0 0 -0.67187 -0.52929z" fill="url(#radialGradient6702)"/>
<path id="path6882" d="m684.02 219.66a0.67174 0.56568 0 0 0 -0.66797 0.52929h-0.70898v5.8692h0.70703a0.67174 0.56568 0 0 0 0.66992 0.5332 0.67174 0.56568 0 0 0 0.66992 -0.5332h0.70899v-5.8692h-0.70704a0.67174 0.56568 0 0 0 -0.67187 -0.52929z" fill="url(#radialGradient6704)"/>
<path id="path6884" d="m684.02 211.66a0.67174 0.56568 0 0 0 -0.66797 0.52929h-0.70898v5.8692h0.70703a0.67174 0.56568 0 0 0 0.66992 0.5332 0.67174 0.56568 0 0 0 0.66992 -0.5332h0.70899v-5.8692h-0.70704a0.67174 0.56568 0 0 0 -0.67187 -0.52929z" fill="url(#radialGradient6706)"/>
<path id="path6886" d="m684.02 203.66a0.67174 0.56568 0 0 0 -0.66797 0.52929h-0.70898v5.8692h0.70703a0.67174 0.56568 0 0 0 0.66992 0.5332 0.67174 0.56568 0 0 0 0.66992 -0.5332h0.70899v-5.8692h-0.70704a0.67174 0.56568 0 0 0 -0.67187 -0.52929z" fill="url(#radialGradient6708)"/>
<path id="path6888" d="m684.02 195.66a0.67174 0.56568 0 0 0 -0.66797 0.52929h-0.70898v5.8692h0.70703a0.67174 0.56568 0 0 0 0.66992 0.5332 0.67174 0.56568 0 0 0 0.66992 -0.5332h0.70899v-5.8692h-0.70704a0.67174 0.56568 0 0 0 -0.67187 -0.52929z" fill="url(#radialGradient6710)"/>
<path id="path6890" d="m684.02 187.66a0.67174 0.56568 0 0 0 -0.66797 0.52929h-0.70898v5.8692h0.70703a0.67174 0.56568 0 0 0 0.66992 0.5332 0.67174 0.56568 0 0 0 0.66992 -0.5332h0.70899v-5.8692h-0.70704a0.67174 0.56568 0 0 0 -0.67187 -0.52929z" fill="url(#radialGradient6744)"/>
<path id="path6892" d="m684.02 179.66a0.67174 0.56568 0 0 0 -0.66797 0.52929h-0.70898v5.8692h0.70703a0.67174 0.56568 0 0 0 0.66992 0.5332 0.67174 0.56568 0 0 0 0.66992 -0.5332h0.70899v-5.8692h-0.70704a0.67174 0.56568 0 0 0 -0.67187 -0.52929z" fill="url(#radialGradient6746)"/>
<path id="path6894" d="m684.02 171.66a0.67174 0.56568 0 0 0 -0.66797 0.52929h-0.70898v5.8692h0.70703a0.67174 0.56568 0 0 0 0.66992 0.5332 0.67174 0.56568 0 0 0 0.66992 -0.5332h0.70899v-5.8692h-0.70704a0.67174 0.56568 0 0 0 -0.67187 -0.52929z" fill="url(#radialGradient6748)"/>
<path id="path6896" d="m684.02 163.66a0.67174 0.56568 0 0 0 -0.66797 0.52929h-0.70898v5.8692h0.70703a0.67174 0.56568 0 0 0 0.66992 0.5332 0.67174 0.56568 0 0 0 0.66992 -0.5332h0.70899v-5.8692h-0.70704a0.67174 0.56568 0 0 0 -0.67187 -0.52929z" fill="url(#radialGradient6750)"/>
<path id="path6898" d="m684.02 155.66a0.67174 0.56568 0 0 0 -0.66797 0.52929h-0.70898v5.8692h0.70703a0.67174 0.56568 0 0 0 0.66992 0.5332 0.67174 0.56568 0 0 0 0.66992 -0.5332h0.70899v-5.8692h-0.70704a0.67174 0.56568 0 0 0 -0.67187 -0.52929z" fill="url(#radialGradient6752)"/>
<path id="path6900" d="m684.02 147.66a0.67174 0.56568 0 0 0 -0.66797 0.52929h-0.70898v5.8692h0.70703a0.67174 0.56568 0 0 0 0.66992 0.5332 0.67174 0.56568 0 0 0 0.66992 -0.5332h0.70899v-5.8692h-0.70704a0.67174 0.56568 0 0 0 -0.67187 -0.52929z" fill="url(#radialGradient6754)"/>
<path id="path6902" d="m684.02 139.66a0.67174 0.56568 0 0 0 -0.66797 0.52929h-0.70898v5.8692h0.70703a0.67174 0.56568 0 0 0 0.66992 0.5332 0.67174 0.56568 0 0 0 0.66992 -0.5332h0.70899v-5.8692h-0.70704a0.67174 0.56568 0 0 0 -0.67187 -0.52929z" fill="url(#radialGradient6756)"/>
<path id="path6904" d="m684.02 131.66a0.67174 0.56568 0 0 0 -0.66797 0.52929h-0.70898v5.8692h0.70703a0.67174 0.56568 0 0 0 0.66992 0.5332 0.67174 0.56568 0 0 0 0.66992 -0.5332h0.70899v-5.8692h-0.70704a0.67174 0.56568 0 0 0 -0.67187 -0.52929z" fill="url(#radialGradient6758)"/>
<path id="path6906" d="m684.02 123.66a0.67174 0.56568 0 0 0 -0.66797 0.52929h-0.70898v5.8692h0.70703a0.67174 0.56568 0 0 0 0.66992 0.5332 0.67174 0.56568 0 0 0 0.66992 -0.5332h0.70899v-5.8692h-0.70704a0.67174 0.56568 0 0 0 -0.67187 -0.52929z" fill="url(#radialGradient6760)"/>
<path id="path6908" d="m684.02 115.66a0.67174 0.56568 0 0 0 -0.66797 0.52929h-0.70898v5.8692h0.70703a0.67174 0.56568 0 0 0 0.66992 0.5332 0.67174 0.56568 0 0 0 0.66992 -0.5332h0.70899v-5.8692h-0.70704a0.67174 0.56568 0 0 0 -0.67187 -0.52929z" fill="url(#radialGradient6762)"/>
<path id="path6910" d="m684.02 107.66a0.67174 0.56568 0 0 0 -0.66797 0.52929h-0.70898v5.8692h0.70703a0.67174 0.56568 0 0 0 0.66992 0.5332 0.67174 0.56568 0 0 0 0.66992 -0.5332h0.70899v-5.8692h-0.70704a0.67174 0.56568 0 0 0 -0.67187 -0.52929z" fill="url(#radialGradient6764)"/>
<path id="path6912" d="m684.02 99.66a0.67174 0.56568 0 0 0 -0.66797 0.52929h-0.70898v5.8691h0.70703a0.67174 0.56568 0 0 0 0.66992 0.5332 0.67174 0.56568 0 0 0 0.66992 -0.5332h0.70899v-5.8691h-0.70704a0.67174 0.56568 0 0 0 -0.67187 -0.52929z" fill="url(#radialGradient6766)"/>
<path id="path6914" d="m684.02 91.66a0.67174 0.56568 0 0 0 -0.66797 0.52929h-0.70898v5.8692h0.70703a0.67174 0.56568 0 0 0 0.66992 0.5332 0.67174 0.56568 0 0 0 0.66992 -0.5332h0.70899v-5.8692h-0.70704a0.67174 0.56568 0 0 0 -0.67187 -0.52929z" fill="url(#radialGradient6768)"/>
<path id="path6916" d="m684.02 83.66a0.67174 0.56568 0 0 0 -0.66797 0.52929h-0.70898v5.8692h0.70703a0.67174 0.56568 0 0 0 0.66992 0.5332 0.67174 0.56568 0 0 0 0.66992 -0.5332h0.70899v-5.8692h-0.70704a0.67174 0.56568 0 0 0 -0.67187 -0.52929z" fill="url(#radialGradient6770)"/>
</g>
<g id="g7242" transform="matrix(2 0 0 2 -1303.5 -23.638)">
<path id="path7012" d="m693.04 452.4a0.56568 0.67174 0 0 0 -0.52929 -0.66797v-0.70898h-5.8692v0.70703a0.56568 0.67174 0 0 0 -0.5332 0.66992 0.56568 0.67174 0 0 0 0.5332 0.66992v0.70899h5.8692v-0.70704a0.56568 0.67174 0 0 0 0.52929 -0.67187z" fill="url(#radialGradient7104)"/>
<path id="path7014" d="m701.04 452.4a0.56568 0.67174 0 0 0 -0.52929 -0.66797v-0.70898h-5.8692v0.70703a0.56568 0.67174 0 0 0 -0.5332 0.66992 0.56568 0.67174 0 0 0 0.5332 0.66992v0.70899h5.8692v-0.70704a0.56568 0.67174 0 0 0 0.52929 -0.67187z" fill="url(#radialGradient7106)"/>
<path id="path7016" d="m709.04 452.4a0.56568 0.67174 0 0 0 -0.52929 -0.66797v-0.70898h-5.8692v0.70703a0.56568 0.67174 0 0 0 -0.5332 0.66992 0.56568 0.67174 0 0 0 0.5332 0.66992v0.70899h5.8692v-0.70704a0.56568 0.67174 0 0 0 0.52929 -0.67187z" fill="url(#radialGradient7108)"/>
<path id="path7018" d="m717.04 452.4a0.56568 0.67174 0 0 0 -0.52929 -0.66797v-0.70898h-5.8692v0.70703a0.56568 0.67174 0 0 0 -0.5332 0.66992 0.56568 0.67174 0 0 0 0.5332 0.66992v0.70899h5.8692v-0.70704a0.56568 0.67174 0 0 0 0.52929 -0.67187z" fill="url(#radialGradient7110)"/>
<path id="path7020" d="m725.04 452.4a0.56568 0.67174 0 0 0 -0.52929 -0.66797v-0.70898h-5.8692v0.70703a0.56568 0.67174 0 0 0 -0.5332 0.66992 0.56568 0.67174 0 0 0 0.5332 0.66992v0.70899h5.8692v-0.70704a0.56568 0.67174 0 0 0 0.52929 -0.67187z" fill="url(#radialGradient7112)"/>
<path id="path7022" d="m733.04 452.4a0.56568 0.67174 0 0 0 -0.52929 -0.66797v-0.70898h-5.8692v0.70703a0.56568 0.67174 0 0 0 -0.5332 0.66992 0.56568 0.67174 0 0 0 0.5332 0.66992v0.70899h5.8692v-0.70704a0.56568 0.67174 0 0 0 0.52929 -0.67187z" fill="url(#radialGradient7114)"/>
<path id="path7024" d="m741.04 452.4a0.56568 0.67174 0 0 0 -0.52929 -0.66797v-0.70898h-5.8692v0.70703a0.56568 0.67174 0 0 0 -0.5332 0.66992 0.56568 0.67174 0 0 0 0.5332 0.66992v0.70899h5.8692v-0.70704a0.56568 0.67174 0 0 0 0.52929 -0.67187z" fill="url(#radialGradient7116)"/>
<path id="path7026" d="m749.04 452.4a0.56568 0.67174 0 0 0 -0.52929 -0.66797v-0.70898h-5.8692v0.70703a0.56568 0.67174 0 0 0 -0.5332 0.66992 0.56568 0.67174 0 0 0 0.5332 0.66992v0.70899h5.8692v-0.70704a0.56568 0.67174 0 0 0 0.52929 -0.67187z" fill="url(#radialGradient7118)"/>
<path id="path7028" d="m757.04 452.4a0.56568 0.67174 0 0 0 -0.52929 -0.66797v-0.70898h-5.8692v0.70703a0.56568 0.67174 0 0 0 -0.5332 0.66992 0.56568 0.67174 0 0 0 0.5332 0.66992v0.70899h5.8692v-0.70704a0.56568 0.67174 0 0 0 0.52929 -0.67187z" fill="url(#radialGradient7120)"/>
<path id="path7030" d="m765.04 452.4a0.56568 0.67174 0 0 0 -0.52929 -0.66797v-0.70898h-5.8692v0.70703a0.56568 0.67174 0 0 0 -0.5332 0.66992 0.56568 0.67174 0 0 0 0.5332 0.66992v0.70899h5.8692v-0.70704a0.56568 0.67174 0 0 0 0.52929 -0.67187z" fill="url(#radialGradient7122)"/>
<path id="path7032" d="m773.04 452.4a0.56568 0.67174 0 0 0 -0.52929 -0.66797v-0.70898h-5.8692v0.70703a0.56568 0.67174 0 0 0 -0.5332 0.66992 0.56568 0.67174 0 0 0 0.5332 0.66992v0.70899h5.8692v-0.70704a0.56568 0.67174 0 0 0 0.52929 -0.67187z" fill="url(#radialGradient7124)"/>
<path id="path7034" d="m781.04 452.4a0.56568 0.67174 0 0 0 -0.52929 -0.66797v-0.70898h-5.8692v0.70703a0.56568 0.67174 0 0 0 -0.5332 0.66992 0.56568 0.67174 0 0 0 0.5332 0.66992v0.70899h5.8692v-0.70704a0.56568 0.67174 0 0 0 0.52929 -0.67187z" fill="url(#radialGradient7126)"/>
<path id="path7036" d="m789.04 452.4a0.56568 0.67174 0 0 0 -0.52929 -0.66797v-0.70898h-5.8692v0.70703a0.56568 0.67174 0 0 0 -0.5332 0.66992 0.56568 0.67174 0 0 0 0.5332 0.66992v0.70899h5.8692v-0.70704a0.56568 0.67174 0 0 0 0.52929 -0.67187z" fill="url(#radialGradient7128)"/>
<path id="path7038" d="m797.04 452.4a0.56568 0.67174 0 0 0 -0.52929 -0.66797v-0.70898h-5.8692v0.70703a0.56568 0.67174 0 0 0 -0.5332 0.66992 0.56568 0.67174 0 0 0 0.5332 0.66992v0.70899h5.8692v-0.70704a0.56568 0.67174 0 0 0 0.52929 -0.67187z" fill="url(#radialGradient7130)"/>
<path id="path7040" d="m805.04 452.4a0.56568 0.67174 0 0 0 -0.52929 -0.66797v-0.70898h-5.8692v0.70703a0.56568 0.67174 0 0 0 -0.5332 0.66992 0.56568 0.67174 0 0 0 0.5332 0.66992v0.70899h5.8692v-0.70704a0.56568 0.67174 0 0 0 0.52929 -0.67187z" fill="url(#radialGradient7132)"/>
<path id="path7042" d="m813.04 452.4a0.56568 0.67174 0 0 0 -0.52929 -0.66797v-0.70898h-5.8692v0.70703a0.56568 0.67174 0 0 0 -0.5332 0.66992 0.56568 0.67174 0 0 0 0.5332 0.66992v0.70899h5.8692v-0.70704a0.56568 0.67174 0 0 0 0.52929 -0.67187z" fill="url(#radialGradient7134)"/>
<path id="path7044" d="m821.04 452.4a0.56568 0.67174 0 0 0 -0.52929 -0.66797v-0.70898h-5.8692v0.70703a0.56568 0.67174 0 0 0 -0.5332 0.66992 0.56568 0.67174 0 0 0 0.5332 0.66992v0.70899h5.8692v-0.70704a0.56568 0.67174 0 0 0 0.52929 -0.67187z" fill="url(#radialGradient7136)"/>
<path id="path7046" d="m829.04 452.4a0.56568 0.67174 0 0 0 -0.52929 -0.66797v-0.70898h-5.8692v0.70703a0.56568 0.67174 0 0 0 -0.5332 0.66992 0.56568 0.67174 0 0 0 0.5332 0.66992v0.70899h5.8692v-0.70704a0.56568 0.67174 0 0 0 0.52929 -0.67187z" fill="url(#radialGradient7138)"/>
<path id="path7048" d="m837.04 452.4a0.56568 0.67174 0 0 0 -0.52929 -0.66797v-0.70898h-5.8692v0.70703a0.56568 0.67174 0 0 0 -0.5332 0.66992 0.56568 0.67174 0 0 0 0.5332 0.66992v0.70899h5.8692v-0.70704a0.56568 0.67174 0 0 0 0.52929 -0.67187z" fill="url(#radialGradient7140)"/>
<path id="path7050" d="m845.04 452.4a0.56568 0.67174 0 0 0 -0.52929 -0.66797v-0.70898h-5.8692v0.70703a0.56568 0.67174 0 0 0 -0.5332 0.66992 0.56568 0.67174 0 0 0 0.5332 0.66992v0.70899h5.8692v-0.70704a0.56568 0.67174 0 0 0 0.52929 -0.67187z" fill="url(#radialGradient7142)"/>
<path id="path7052" d="m853.04 452.4a0.56568 0.67174 0 0 0 -0.52929 -0.66797v-0.70898h-5.8692v0.70703a0.56568 0.67174 0 0 0 -0.5332 0.66992 0.56568 0.67174 0 0 0 0.5332 0.66992v0.70899h5.8692v-0.70704a0.56568 0.67174 0 0 0 0.52929 -0.67187z" fill="url(#radialGradient7144)"/>
<path id="path7054" d="m861.04 452.4a0.56568 0.67174 0 0 0 -0.52929 -0.66797v-0.70898h-5.8692v0.70703a0.56568 0.67174 0 0 0 -0.5332 0.66992 0.56568 0.67174 0 0 0 0.5332 0.66992v0.70899h5.8692v-0.70704a0.56568 0.67174 0 0 0 0.52929 -0.67187z" fill="url(#radialGradient7146)"/>
<path id="path7056" d="m869.04 452.4a0.56568 0.67174 0 0 0 -0.52929 -0.66797v-0.70898h-5.8692v0.70703a0.56568 0.67174 0 0 0 -0.5332 0.66992 0.56568 0.67174 0 0 0 0.5332 0.66992v0.70899h5.8692v-0.70704a0.56568 0.67174 0 0 0 0.52929 -0.67187z" fill="url(#radialGradient7148)"/>
<path id="path7058" d="m877.04 452.4a0.56568 0.67174 0 0 0 -0.52929 -0.66797v-0.70898h-5.8692v0.70703a0.56568 0.67174 0 0 0 -0.5332 0.66992 0.56568 0.67174 0 0 0 0.5332 0.66992v0.70899h5.8692v-0.70704a0.56568 0.67174 0 0 0 0.52929 -0.67187z" fill="url(#radialGradient7150)"/>
<path id="path7060" d="m885.04 452.4a0.56568 0.67174 0 0 0 -0.52929 -0.66797v-0.70898h-5.8692v0.70703a0.56568 0.67174 0 0 0 -0.5332 0.66992 0.56568 0.67174 0 0 0 0.5332 0.66992v0.70899h5.8692v-0.70704a0.56568 0.67174 0 0 0 0.52929 -0.67187z" fill="url(#radialGradient7152)"/>
<path id="path7062" d="m893.04 452.4a0.56568 0.67174 0 0 0 -0.52929 -0.66797v-0.70898h-5.8692v0.70703a0.56568 0.67174 0 0 0 -0.5332 0.66992 0.56568 0.67174 0 0 0 0.5332 0.66992v0.70899h5.8692v-0.70704a0.56568 0.67174 0 0 0 0.52929 -0.67187z" fill="url(#radialGradient7154)"/>
<path id="path7064" d="m901.04 452.4a0.56568 0.67174 0 0 0 -0.52929 -0.66797v-0.70898h-5.8692v0.70703a0.56568 0.67174 0 0 0 -0.5332 0.66992 0.56568 0.67174 0 0 0 0.5332 0.66992v0.70899h5.8692v-0.70704a0.56568 0.67174 0 0 0 0.52929 -0.67187z" fill="url(#radialGradient7156)"/>
<path id="path7066" d="m909.04 452.4a0.56568 0.67174 0 0 0 -0.52929 -0.66797v-0.70898h-5.8692v0.70703a0.56568 0.67174 0 0 0 -0.5332 0.66992 0.56568 0.67174 0 0 0 0.5332 0.66992v0.70899h5.8692v-0.70704a0.56568 0.67174 0 0 0 0.52929 -0.67187z" fill="url(#radialGradient7158)"/>
<path id="path7068" d="m917.04 452.4a0.56568 0.67174 0 0 0 -0.52929 -0.66797v-0.70898h-5.8692v0.70703a0.56568 0.67174 0 0 0 -0.5332 0.66992 0.56568 0.67174 0 0 0 0.5332 0.66992v0.70899h5.8692v-0.70704a0.56568 0.67174 0 0 0 0.52929 -0.67187z" fill="url(#radialGradient7160)"/>
<path id="path7070" d="m925.04 452.4a0.56568 0.67174 0 0 0 -0.52929 -0.66797v-0.70898h-5.8692v0.70703a0.56568 0.67174 0 0 0 -0.5332 0.66992 0.56568 0.67174 0 0 0 0.5332 0.66992v0.70899h5.8692v-0.70704a0.56568 0.67174 0 0 0 0.52929 -0.67187z" fill="url(#radialGradient7162)"/>
<path id="path7072" d="m933.04 452.4a0.56568 0.67174 0 0 0 -0.52929 -0.66797v-0.70898h-5.8692v0.70703a0.56568 0.67174 0 0 0 -0.5332 0.66992 0.56568 0.67174 0 0 0 0.5332 0.66992v0.70899h5.8692v-0.70704a0.56568 0.67174 0 0 0 0.52929 -0.67187z" fill="url(#radialGradient7164)"/>
<path id="path7074" d="m941.04 452.4a0.56568 0.67174 0 0 0 -0.52929 -0.66797v-0.70898h-5.8692v0.70703a0.56568 0.67174 0 0 0 -0.5332 0.66992 0.56568 0.67174 0 0 0 0.5332 0.66992v0.70899h5.8692v-0.70704a0.56568 0.67174 0 0 0 0.52929 -0.67187z" fill="url(#radialGradient7166)"/>
<path id="path7076" d="m949.04 452.4a0.56568 0.67174 0 0 0 -0.52929 -0.66797v-0.70898h-5.8692v0.70703a0.56568 0.67174 0 0 0 -0.5332 0.66992 0.56568 0.67174 0 0 0 0.5332 0.66992v0.70899h5.8692v-0.70704a0.56568 0.67174 0 0 0 0.52929 -0.67187z" fill="url(#radialGradient7168)"/>
<path id="path7078" d="m957.04 452.4a0.56568 0.67174 0 0 0 -0.52929 -0.66797v-0.70898h-5.8692v0.70703a0.56568 0.67174 0 0 0 -0.5332 0.66992 0.56568 0.67174 0 0 0 0.5332 0.66992v0.70899h5.8692v-0.70704a0.56568 0.67174 0 0 0 0.52929 -0.67187z" fill="url(#radialGradient7170)"/>
<path id="path7080" d="m965.04 452.4a0.56568 0.67174 0 0 0 -0.52929 -0.66797v-0.70898h-5.8692v0.70703a0.56568 0.67174 0 0 0 -0.5332 0.66992 0.56568 0.67174 0 0 0 0.5332 0.66992v0.70899h5.8692v-0.70704a0.56568 0.67174 0 0 0 0.52929 -0.67187z" fill="url(#radialGradient7172)"/>
<path id="path7082" d="m973.04 452.4a0.56568 0.67174 0 0 0 -0.52929 -0.66797v-0.70898h-5.8692v0.70703a0.56568 0.67174 0 0 0 -0.5332 0.66992 0.56568 0.67174 0 0 0 0.5332 0.66992v0.70899h5.8692v-0.70704a0.56568 0.67174 0 0 0 0.52929 -0.67187z" fill="url(#radialGradient7174)"/>
</g>
<g id="g7280" transform="matrix(2 0 0 2 -1303.5 -761.68)">
<path id="path7282" d="m693.04 452.4a0.56568 0.67174 0 0 0 -0.52929 -0.66797v-0.70898h-5.8692v0.70703a0.56568 0.67174 0 0 0 -0.5332 0.66992 0.56568 0.67174 0 0 0 0.5332 0.66992v0.70899h5.8692v-0.70704a0.56568 0.67174 0 0 0 0.52929 -0.67187z" fill="url(#radialGradient7104)"/>
<path id="path7284" d="m701.04 452.4a0.56568 0.67174 0 0 0 -0.52929 -0.66797v-0.70898h-5.8692v0.70703a0.56568 0.67174 0 0 0 -0.5332 0.66992 0.56568 0.67174 0 0 0 0.5332 0.66992v0.70899h5.8692v-0.70704a0.56568 0.67174 0 0 0 0.52929 -0.67187z" fill="url(#radialGradient7106)"/>
<path id="path7286" d="m709.04 452.4a0.56568 0.67174 0 0 0 -0.52929 -0.66797v-0.70898h-5.8692v0.70703a0.56568 0.67174 0 0 0 -0.5332 0.66992 0.56568 0.67174 0 0 0 0.5332 0.66992v0.70899h5.8692v-0.70704a0.56568 0.67174 0 0 0 0.52929 -0.67187z" fill="url(#radialGradient7108)"/>
<path id="path7288" d="m717.04 452.4a0.56568 0.67174 0 0 0 -0.52929 -0.66797v-0.70898h-5.8692v0.70703a0.56568 0.67174 0 0 0 -0.5332 0.66992 0.56568 0.67174 0 0 0 0.5332 0.66992v0.70899h5.8692v-0.70704a0.56568 0.67174 0 0 0 0.52929 -0.67187z" fill="url(#radialGradient7110)"/>
<path id="path7290" d="m725.04 452.4a0.56568 0.67174 0 0 0 -0.52929 -0.66797v-0.70898h-5.8692v0.70703a0.56568 0.67174 0 0 0 -0.5332 0.66992 0.56568 0.67174 0 0 0 0.5332 0.66992v0.70899h5.8692v-0.70704a0.56568 0.67174 0 0 0 0.52929 -0.67187z" fill="url(#radialGradient7112)"/>
<path id="path7292" d="m733.04 452.4a0.56568 0.67174 0 0 0 -0.52929 -0.66797v-0.70898h-5.8692v0.70703a0.56568 0.67174 0 0 0 -0.5332 0.66992 0.56568 0.67174 0 0 0 0.5332 0.66992v0.70899h5.8692v-0.70704a0.56568 0.67174 0 0 0 0.52929 -0.67187z" fill="url(#radialGradient7114)"/>
<path id="path7294" d="m741.04 452.4a0.56568 0.67174 0 0 0 -0.52929 -0.66797v-0.70898h-5.8692v0.70703a0.56568 0.67174 0 0 0 -0.5332 0.66992 0.56568 0.67174 0 0 0 0.5332 0.66992v0.70899h5.8692v-0.70704a0.56568 0.67174 0 0 0 0.52929 -0.67187z" fill="url(#radialGradient7116)"/>
<path id="path7296" d="m749.04 452.4a0.56568 0.67174 0 0 0 -0.52929 -0.66797v-0.70898h-5.8692v0.70703a0.56568 0.67174 0 0 0 -0.5332 0.66992 0.56568 0.67174 0 0 0 0.5332 0.66992v0.70899h5.8692v-0.70704a0.56568 0.67174 0 0 0 0.52929 -0.67187z" fill="url(#radialGradient7118)"/>
<path id="path7298" d="m757.04 452.4a0.56568 0.67174 0 0 0 -0.52929 -0.66797v-0.70898h-5.8692v0.70703a0.56568 0.67174 0 0 0 -0.5332 0.66992 0.56568 0.67174 0 0 0 0.5332 0.66992v0.70899h5.8692v-0.70704a0.56568 0.67174 0 0 0 0.52929 -0.67187z" fill="url(#radialGradient7120)"/>
<path id="path7300" d="m765.04 452.4a0.56568 0.67174 0 0 0 -0.52929 -0.66797v-0.70898h-5.8692v0.70703a0.56568 0.67174 0 0 0 -0.5332 0.66992 0.56568 0.67174 0 0 0 0.5332 0.66992v0.70899h5.8692v-0.70704a0.56568 0.67174 0 0 0 0.52929 -0.67187z" fill="url(#radialGradient7122)"/>
<path id="path7302" d="m773.04 452.4a0.56568 0.67174 0 0 0 -0.52929 -0.66797v-0.70898h-5.8692v0.70703a0.56568 0.67174 0 0 0 -0.5332 0.66992 0.56568 0.67174 0 0 0 0.5332 0.66992v0.70899h5.8692v-0.70704a0.56568 0.67174 0 0 0 0.52929 -0.67187z" fill="url(#radialGradient7124)"/>
<path id="path7304" d="m781.04 452.4a0.56568 0.67174 0 0 0 -0.52929 -0.66797v-0.70898h-5.8692v0.70703a0.56568 0.67174 0 0 0 -0.5332 0.66992 0.56568 0.67174 0 0 0 0.5332 0.66992v0.70899h5.8692v-0.70704a0.56568 0.67174 0 0 0 0.52929 -0.67187z" fill="url(#radialGradient7126)"/>
<path id="path7306" d="m789.04 452.4a0.56568 0.67174 0 0 0 -0.52929 -0.66797v-0.70898h-5.8692v0.70703a0.56568 0.67174 0 0 0 -0.5332 0.66992 0.56568 0.67174 0 0 0 0.5332 0.66992v0.70899h5.8692v-0.70704a0.56568 0.67174 0 0 0 0.52929 -0.67187z" fill="url(#radialGradient7128)"/>
<path id="path7308" d="m797.04 452.4a0.56568 0.67174 0 0 0 -0.52929 -0.66797v-0.70898h-5.8692v0.70703a0.56568 0.67174 0 0 0 -0.5332 0.66992 0.56568 0.67174 0 0 0 0.5332 0.66992v0.70899h5.8692v-0.70704a0.56568 0.67174 0 0 0 0.52929 -0.67187z" fill="url(#radialGradient7130)"/>
<path id="path7310" d="m805.04 452.4a0.56568 0.67174 0 0 0 -0.52929 -0.66797v-0.70898h-5.8692v0.70703a0.56568 0.67174 0 0 0 -0.5332 0.66992 0.56568 0.67174 0 0 0 0.5332 0.66992v0.70899h5.8692v-0.70704a0.56568 0.67174 0 0 0 0.52929 -0.67187z" fill="url(#radialGradient7132)"/>
<path id="path7312" d="m813.04 452.4a0.56568 0.67174 0 0 0 -0.52929 -0.66797v-0.70898h-5.8692v0.70703a0.56568 0.67174 0 0 0 -0.5332 0.66992 0.56568 0.67174 0 0 0 0.5332 0.66992v0.70899h5.8692v-0.70704a0.56568 0.67174 0 0 0 0.52929 -0.67187z" fill="url(#radialGradient7134)"/>
<path id="path7314" d="m821.04 452.4a0.56568 0.67174 0 0 0 -0.52929 -0.66797v-0.70898h-5.8692v0.70703a0.56568 0.67174 0 0 0 -0.5332 0.66992 0.56568 0.67174 0 0 0 0.5332 0.66992v0.70899h5.8692v-0.70704a0.56568 0.67174 0 0 0 0.52929 -0.67187z" fill="url(#radialGradient7136)"/>
<path id="path7316" d="m829.04 452.4a0.56568 0.67174 0 0 0 -0.52929 -0.66797v-0.70898h-5.8692v0.70703a0.56568 0.67174 0 0 0 -0.5332 0.66992 0.56568 0.67174 0 0 0 0.5332 0.66992v0.70899h5.8692v-0.70704a0.56568 0.67174 0 0 0 0.52929 -0.67187z" fill="url(#radialGradient7138)"/>
<path id="path7318" d="m837.04 452.4a0.56568 0.67174 0 0 0 -0.52929 -0.66797v-0.70898h-5.8692v0.70703a0.56568 0.67174 0 0 0 -0.5332 0.66992 0.56568 0.67174 0 0 0 0.5332 0.66992v0.70899h5.8692v-0.70704a0.56568 0.67174 0 0 0 0.52929 -0.67187z" fill="url(#radialGradient7140)"/>
<path id="path7320" d="m845.04 452.4a0.56568 0.67174 0 0 0 -0.52929 -0.66797v-0.70898h-5.8692v0.70703a0.56568 0.67174 0 0 0 -0.5332 0.66992 0.56568 0.67174 0 0 0 0.5332 0.66992v0.70899h5.8692v-0.70704a0.56568 0.67174 0 0 0 0.52929 -0.67187z" fill="url(#radialGradient7142)"/>
<path id="path7322" d="m853.04 452.4a0.56568 0.67174 0 0 0 -0.52929 -0.66797v-0.70898h-5.8692v0.70703a0.56568 0.67174 0 0 0 -0.5332 0.66992 0.56568 0.67174 0 0 0 0.5332 0.66992v0.70899h5.8692v-0.70704a0.56568 0.67174 0 0 0 0.52929 -0.67187z" fill="url(#radialGradient7144)"/>
<path id="path7324" d="m861.04 452.4a0.56568 0.67174 0 0 0 -0.52929 -0.66797v-0.70898h-5.8692v0.70703a0.56568 0.67174 0 0 0 -0.5332 0.66992 0.56568 0.67174 0 0 0 0.5332 0.66992v0.70899h5.8692v-0.70704a0.56568 0.67174 0 0 0 0.52929 -0.67187z" fill="url(#radialGradient7146)"/>
<path id="path7326" d="m869.04 452.4a0.56568 0.67174 0 0 0 -0.52929 -0.66797v-0.70898h-5.8692v0.70703a0.56568 0.67174 0 0 0 -0.5332 0.66992 0.56568 0.67174 0 0 0 0.5332 0.66992v0.70899h5.8692v-0.70704a0.56568 0.67174 0 0 0 0.52929 -0.67187z" fill="url(#radialGradient7148)"/>
<path id="path7328" d="m877.04 452.4a0.56568 0.67174 0 0 0 -0.52929 -0.66797v-0.70898h-5.8692v0.70703a0.56568 0.67174 0 0 0 -0.5332 0.66992 0.56568 0.67174 0 0 0 0.5332 0.66992v0.70899h5.8692v-0.70704a0.56568 0.67174 0 0 0 0.52929 -0.67187z" fill="url(#radialGradient7150)"/>
<path id="path7330" d="m885.04 452.4a0.56568 0.67174 0 0 0 -0.52929 -0.66797v-0.70898h-5.8692v0.70703a0.56568 0.67174 0 0 0 -0.5332 0.66992 0.56568 0.67174 0 0 0 0.5332 0.66992v0.70899h5.8692v-0.70704a0.56568 0.67174 0 0 0 0.52929 -0.67187z" fill="url(#radialGradient7152)"/>
<path id="path7332" d="m893.04 452.4a0.56568 0.67174 0 0 0 -0.52929 -0.66797v-0.70898h-5.8692v0.70703a0.56568 0.67174 0 0 0 -0.5332 0.66992 0.56568 0.67174 0 0 0 0.5332 0.66992v0.70899h5.8692v-0.70704a0.56568 0.67174 0 0 0 0.52929 -0.67187z" fill="url(#radialGradient7154)"/>
<path id="path7334" d="m901.04 452.4a0.56568 0.67174 0 0 0 -0.52929 -0.66797v-0.70898h-5.8692v0.70703a0.56568 0.67174 0 0 0 -0.5332 0.66992 0.56568 0.67174 0 0 0 0.5332 0.66992v0.70899h5.8692v-0.70704a0.56568 0.67174 0 0 0 0.52929 -0.67187z" fill="url(#radialGradient7156)"/>
<path id="path7336" d="m909.04 452.4a0.56568 0.67174 0 0 0 -0.52929 -0.66797v-0.70898h-5.8692v0.70703a0.56568 0.67174 0 0 0 -0.5332 0.66992 0.56568 0.67174 0 0 0 0.5332 0.66992v0.70899h5.8692v-0.70704a0.56568 0.67174 0 0 0 0.52929 -0.67187z" fill="url(#radialGradient7158)"/>
<path id="path7338" d="m917.04 452.4a0.56568 0.67174 0 0 0 -0.52929 -0.66797v-0.70898h-5.8692v0.70703a0.56568 0.67174 0 0 0 -0.5332 0.66992 0.56568 0.67174 0 0 0 0.5332 0.66992v0.70899h5.8692v-0.70704a0.56568 0.67174 0 0 0 0.52929 -0.67187z" fill="url(#radialGradient7160)"/>
<path id="path7340" d="m925.04 452.4a0.56568 0.67174 0 0 0 -0.52929 -0.66797v-0.70898h-5.8692v0.70703a0.56568 0.67174 0 0 0 -0.5332 0.66992 0.56568 0.67174 0 0 0 0.5332 0.66992v0.70899h5.8692v-0.70704a0.56568 0.67174 0 0 0 0.52929 -0.67187z" fill="url(#radialGradient7162)"/>
<path id="path7342" d="m933.04 452.4a0.56568 0.67174 0 0 0 -0.52929 -0.66797v-0.70898h-5.8692v0.70703a0.56568 0.67174 0 0 0 -0.5332 0.66992 0.56568 0.67174 0 0 0 0.5332 0.66992v0.70899h5.8692v-0.70704a0.56568 0.67174 0 0 0 0.52929 -0.67187z" fill="url(#radialGradient7164)"/>
<path id="path7344" d="m941.04 452.4a0.56568 0.67174 0 0 0 -0.52929 -0.66797v-0.70898h-5.8692v0.70703a0.56568 0.67174 0 0 0 -0.5332 0.66992 0.56568 0.67174 0 0 0 0.5332 0.66992v0.70899h5.8692v-0.70704a0.56568 0.67174 0 0 0 0.52929 -0.67187z" fill="url(#radialGradient7166)"/>
<path id="path7346" d="m949.04 452.4a0.56568 0.67174 0 0 0 -0.52929 -0.66797v-0.70898h-5.8692v0.70703a0.56568 0.67174 0 0 0 -0.5332 0.66992 0.56568 0.67174 0 0 0 0.5332 0.66992v0.70899h5.8692v-0.70704a0.56568 0.67174 0 0 0 0.52929 -0.67187z" fill="url(#radialGradient7168)"/>
<path id="path7348" d="m957.04 452.4a0.56568 0.67174 0 0 0 -0.52929 -0.66797v-0.70898h-5.8692v0.70703a0.56568 0.67174 0 0 0 -0.5332 0.66992 0.56568 0.67174 0 0 0 0.5332 0.66992v0.70899h5.8692v-0.70704a0.56568 0.67174 0 0 0 0.52929 -0.67187z" fill="url(#radialGradient7170)"/>
<path id="path7350" d="m965.04 452.4a0.56568 0.67174 0 0 0 -0.52929 -0.66797v-0.70898h-5.8692v0.70703a0.56568 0.67174 0 0 0 -0.5332 0.66992 0.56568 0.67174 0 0 0 0.5332 0.66992v0.70899h5.8692v-0.70704a0.56568 0.67174 0 0 0 0.52929 -0.67187z" fill="url(#radialGradient7172)"/>
<path id="path7352" d="m973.04 452.4a0.56568 0.67174 0 0 0 -0.52929 -0.66797v-0.70898h-5.8692v0.70703a0.56568 0.67174 0 0 0 -0.5332 0.66992 0.56568 0.67174 0 0 0 0.5332 0.66992v0.70899h5.8692v-0.70704a0.56568 0.67174 0 0 0 0.52929 -0.67187z" fill="url(#radialGradient7174)"/>
</g>
</g>
</svg>
